<svg width="304" height="317" viewBox="0 0 304 317" fill="none" xmlns="http://www.w3.org/2000/svg">
<path d="M163.717 167.329C161.851 167.329 159.986 166.785 158.393 165.65C148.519 158.75 138.782 151.35 129.454 143.724C122.765 138.276 116.167 132.602 109.751 126.791C105.974 123.341 105.656 117.485 109.114 113.717C112.572 109.949 118.442 109.631 122.219 113.081C128.362 118.665 134.732 124.113 141.193 129.378C150.203 136.687 159.576 143.814 169.041 150.488C173.227 153.438 174.228 159.204 171.316 163.38C169.541 165.968 166.674 167.329 163.717 167.329Z" fill="#14254C"/>
<path d="M189.471 168.328L164.49 144.541L149.884 162.291L181.463 177.044L189.471 168.328Z" fill="#F27043"/>
<path d="M119.216 106.272L132.866 119.845L121.172 124.521L106.748 109.767V91.1097H119.216V106.272Z" fill="black"/>
<path d="M165.582 183.808L171.361 180.54C173.5 179.359 176.139 179.45 178.141 180.812L184.739 185.306C185.603 185.896 185.512 187.168 184.602 187.667L183.783 188.075C183.465 188.212 183.146 188.257 182.828 188.166L165.582 183.808Z" fill="#F27043"/>
<path d="M42.1801 306.74C41.3156 306.74 40.451 306.559 39.632 306.15C36.9018 304.743 35.8098 301.384 37.2204 298.66L67.7979 239.01C69.2085 236.286 72.5757 235.196 75.3058 236.604C78.0359 238.011 79.128 241.37 77.7174 244.094L47.1399 303.699C46.1843 305.651 44.2277 306.74 42.1801 306.74Z" fill="#FAB16A"/>
<path d="M36.5833 300.839C36.4013 304.108 39.0405 306.877 42.3166 306.831L44.4552 306.786L63.8392 306.559C65.5228 306.559 66.9789 305.333 67.2519 303.608C67.5704 301.702 66.2509 299.931 64.3398 299.613L54.0107 297.797L43.3632 295.618C39.996 294.938 36.8109 297.434 36.5833 300.839Z" fill="#FAB16A"/>
<path d="M187 305.55C185.023 305.55 183.131 304.289 182.29 302.218L157.603 241.254C156.467 238.463 157.687 235.221 160.294 234.005C162.902 232.789 165.93 234.095 167.065 236.887L191.752 297.851C192.888 300.642 191.668 303.884 189.061 305.1C188.346 305.415 187.673 305.55 187 305.55Z" fill="#FAB16A"/>
<path d="M103.745 184.762L123.766 241.87L124.448 289.354C124.448 290.216 125.176 290.943 126.041 290.943H212.723C214.042 290.943 214.77 289.49 214.042 288.4L171.179 226.798L121.809 179.405L103.745 184.762Z" fill="black"/>
<path d="M84.0422 174.956L22.1136 288.9C21.522 289.989 22.2956 291.26 23.5241 291.26L117.213 290.943C118.078 290.943 118.806 290.216 118.806 289.354L119.125 244.003L108.249 181.992L84.0422 174.956Z" fill="black"/>
<path d="M84.1333 184.308L119.989 188.575L127.087 134.372C129.499 119.164 117.714 105.409 102.289 105.409C86.8634 105.409 75.0783 119.164 77.4899 134.372L84.1333 184.308Z" fill="#F27043"/>
<path d="M123.493 171.461L81.4031 167.329L83.2232 182.174C84.4062 191.707 92.3691 198.925 101.97 199.197C111.799 199.47 120.308 192.388 121.764 182.673L123.493 171.461Z" fill="#14254C"/>
<path d="M61.6551 197.064L75.9428 209.729C76.5343 210.274 77.4899 210.138 77.9449 209.457L97.6019 179.723C98.1024 178.996 97.7384 177.952 96.8739 177.725L86.5903 174.593C86.1353 174.457 85.6803 174.547 85.3163 174.865L61.6551 195.066C61.0635 195.566 61.0635 196.519 61.6551 197.064Z" fill="#14254C"/>
<path d="M134.914 204.736L145.197 197.609C145.971 197.064 145.971 195.974 145.243 195.43L120.262 177.135C119.852 176.817 119.306 176.772 118.851 177.044L110.388 181.584C109.569 182.038 109.432 183.127 110.115 183.763L133.321 204.6C133.731 205.054 134.413 205.099 134.914 204.736Z" fill="#14254C"/>
<path d="M129.408 207.142L112.936 180.767L92.2327 179.586C91.5956 179.541 91.0041 179.995 90.8676 180.63L83.3142 213.361L129.408 207.142Z" fill="#14254C"/>
<path d="M192.474 161.428L206.443 139.229L248.033 83.3923L278.201 43.0807C278.747 42.309 279.839 42.1728 280.567 42.7176C281.34 43.2623 281.522 44.3064 281.022 45.0781L252.992 86.9332L213.815 144.495L197.434 164.969L192.474 161.428Z" fill="#FAB16A"/>
<path d="M254.631 83.0746L251.081 80.5324C250.535 80.1239 249.762 80.26 249.352 80.8048L247.669 83.12C247.259 83.6647 247.396 84.4365 247.942 84.845L251.491 87.3872C252.037 87.7958 252.81 87.6596 253.22 87.1148L254.904 84.7996C255.313 84.2549 255.177 83.4832 254.631 83.0746Z" fill="black"/>
<path d="M281.613 43.2623L279.611 41.855C279.156 41.5373 278.474 41.6281 278.155 42.082L276.472 44.4426C276.153 44.8966 276.244 45.5775 276.699 45.8953L278.701 47.3026C279.156 47.6203 279.839 47.5295 280.157 47.0756L281.841 44.715C282.205 44.261 282.068 43.6255 281.613 43.2623Z" fill="black"/>
<path d="M170.633 206.007L162.443 200.196L192.52 161.292L197.525 164.833L170.633 206.007Z" fill="black"/>
<path d="M206.716 167.284L187.469 153.665C187.014 153.348 186.377 153.438 186.058 153.892L184.693 155.799C184.375 156.253 184.466 156.888 184.921 157.206L204.168 170.825C204.623 171.143 205.26 171.052 205.579 170.598L206.944 168.691C207.308 168.192 207.171 167.602 206.716 167.284Z" fill="black"/>
<path d="M179.688 199.969L184.739 192.887C186.24 190.799 185.376 187.894 182.964 186.941L169.45 181.584L163.944 191.798L173.864 200.65C175.593 202.194 178.323 201.921 179.688 199.969Z" fill="#F27043"/>
<path d="M141.603 181.084C140.556 181.084 139.464 180.903 138.418 180.494C128.134 176.726 118.806 171.188 110.707 164.016C95.3723 150.442 88.2739 134.372 84.9523 123.295C83.4962 118.393 86.3173 113.217 91.2316 111.765C96.1458 110.312 101.333 113.127 102.789 118.029C105.383 126.791 111.025 139.502 123.083 150.17C129.454 155.799 136.779 160.157 144.879 163.108C149.702 164.878 152.159 170.189 150.385 175.001C148.929 178.724 145.379 181.084 141.603 181.084Z" fill="#0C1B38"/>
<path d="M173.227 181.538L146.517 160.702L131.183 181.538L168.904 193.296L173.227 181.538Z" fill="#F27043"/>
<path d="M111.025 106.227L92.3236 122.569L69.709 113.626L82.4041 103.503C84.2242 102.05 85.2708 99.8257 85.2708 97.5105V86.0253H110.98V106.227H111.025Z" fill="black"/>
<path fill-rule="evenodd" clip-rule="evenodd" d="M91.5046 65.688C84.6793 62.1471 81.0846 58.0614 79.0825 54.8383C76.7619 51.1159 75.9883 47.7112 72.4846 46.2131C70.3005 45.3052 68.89 45.8953 64.4762 45.8499C60.381 45.8045 57.0594 45.2144 54.7842 44.715C54.5567 46.3039 54.3747 47.9381 54.1472 49.527C56.2403 50.2079 59.289 50.8889 62.9292 50.6619C66.7969 50.4349 68.2984 49.3454 70.5736 50.1625C73.6677 51.252 74.3502 54.4752 76.1703 57.2897C78.2179 60.422 82.3587 63.9629 91.5046 65.688Z" fill="#F27043"/>
<path fill-rule="evenodd" clip-rule="evenodd" d="M91.9141 65.461C84.2242 65.1886 79.219 62.9642 76.0338 60.9214C72.5756 58.697 70.619 56.4726 66.3418 55.9278C63.2477 55.5193 61.8371 56.4726 58.0604 56.1094C54.5567 55.7916 51.7356 54.6567 49.9155 53.7034C49.597 55.4285 49.2329 57.1535 48.9144 58.924C50.6435 59.6503 53.3282 60.5128 56.6953 60.6944C61.0635 60.9214 62.7926 59.7411 66.3418 60.2858C70.1185 60.876 71.6656 62.6464 74.4412 64.3261C77.6719 66.3235 82.9047 67.7762 91.9141 65.461Z" fill="#F27043"/>
<path fill-rule="evenodd" clip-rule="evenodd" d="M92.9152 57.7891H99.968C110.707 57.7891 119.534 66.4597 119.534 77.3093V92.6077C119.534 99.4625 113.983 105.001 107.112 105.001H97.5109C90.64 105.001 85.0887 99.4625 85.0887 92.6077V65.5518C85.1342 61.2391 88.6834 57.7891 92.9152 57.7891Z" fill="#14254C"/>
<path fill-rule="evenodd" clip-rule="evenodd" d="M86.9088 84.0733C86.9088 92.6078 93.8252 99.508 102.38 99.508C110.934 99.508 117.85 92.4716 117.85 84.0733C117.85 75.6751 110.934 68.6387 102.38 68.6387C93.8252 68.6387 86.9088 75.5389 86.9088 84.0733Z" fill="#31475C"/>
<path fill-rule="evenodd" clip-rule="evenodd" d="M88.9564 76.5376C88.9564 76.4922 88.9564 76.4468 88.9564 76.4014C91.6411 71.771 96.6008 68.6387 102.38 68.6387C108.158 68.6387 113.118 71.8164 115.803 76.4468C115.803 76.4922 115.803 76.4922 115.803 76.5376V91.6999C113.118 96.3303 108.158 99.508 102.38 99.508C96.6008 99.508 91.5956 96.3757 88.9564 91.7453V76.5376Z" fill="#FAB16A"/>
<path fill-rule="evenodd" clip-rule="evenodd" d="M108.75 87.7504H101.743V75.6297L108.75 87.7504Z" fill="#DC7F1B"/>
<path d="M117.851 74.4948H85.7714V72.9513H117.851V74.4948Z" fill="#14254C"/>
<path d="M117.851 81.5312H85.7714V79.9877H117.851V81.5312Z" fill="#14254C"/>
<path d="M117.851 95.5585H87.6825V93.8789H117.851V95.5585Z" fill="#14254C"/>
<path d="M117.851 88.5222H85.7714V86.8879H117.851V88.5222Z" fill="#14254C"/>
<path d="M94.2803 78.8528H95.8728C96.5099 78.8528 97.0104 78.3534 97.0104 77.7179V77.6271C97.0104 76.9916 96.5099 76.4922 95.8728 76.4922H94.2803C93.6432 76.4922 93.1427 76.9916 93.1427 77.6271V77.7179C93.1427 78.3534 93.6432 78.8528 94.2803 78.8528Z" fill="white"/>
<path d="M110.161 78.8528H111.753C112.39 78.8528 112.891 78.3534 112.891 77.7179V77.6271C112.891 76.9916 112.39 76.4922 111.753 76.4922H110.161C109.523 76.4922 109.023 76.9916 109.023 77.6271V77.7179C109.068 78.3534 109.569 78.8528 110.161 78.8528Z" fill="white"/>
<path d="M97.0105 78.8528C97.6638 78.8528 98.1935 78.3244 98.1935 77.6725C98.1935 77.0206 97.6638 76.4922 97.0105 76.4922C96.3571 76.4922 95.8274 77.0206 95.8274 77.6725C95.8274 78.3244 96.3571 78.8528 97.0105 78.8528Z" fill="black"/>
<path d="M112.663 78.8528C113.317 78.8528 113.846 78.3244 113.846 77.6725C113.846 77.0206 113.317 76.4922 112.663 76.4922C112.01 76.4922 111.48 77.0206 111.48 77.6725C111.48 78.3244 112.01 78.8528 112.663 78.8528Z" fill="black"/>
<path d="M191.746 182.855L196.706 176C198.253 173.866 197.297 170.825 194.749 169.962L192.019 169.054C190.063 168.374 187.878 169.145 186.741 170.87L183.328 176.136C182.1 178.043 182.464 180.54 184.147 182.038L185.922 183.581C187.696 185.034 190.381 184.716 191.746 182.855Z" fill="#F27043"/>
<path d="M177.868 166.467L183.692 163.244C185.831 162.064 188.47 162.2 190.472 163.607L197.025 168.147C197.889 168.737 197.798 170.008 196.843 170.507L196.024 170.916C195.705 171.052 195.386 171.097 195.068 171.007L177.868 166.467Z" fill="#F27043"/>
<path d="M182.573 301.364C182.739 304.322 185.639 306.502 188.87 306.08L190.977 305.79L210.099 303.331C211.762 303.135 213.07 301.864 213.157 300.283C213.27 298.533 211.779 297.097 209.858 297.034L199.464 296.605L188.717 295.886C185.364 295.661 182.438 298.28 182.573 301.364Z" fill="#FAB16A"/>
</svg>
