<svg width="14" height="14" viewBox="0 0 14 14" fill="none" xmlns="http://www.w3.org/2000/svg">
<path d="M7 0C10.8664 0 14 3.13359 14 7C14 10.8664 10.8664 14 7 14C3.13359 14 0 10.8664 0 7C0 3.13359 3.13359 0 7 0ZM7 12.6875C7.20234 12.6875 7.71367 12.4906 8.30156 11.3641C8.54219 10.8801 8.72539 10.2922 8.90313 9.625H5.09687C5.25 10.2922 5.45781 10.8801 5.69844 11.3641C6.26172 12.4906 6.79766 12.6875 7 12.6875ZM4.88086 8.3125H9.11914C9.16289 7.89414 9.1875 7.45391 9.1875 7C9.1875 6.54609 9.16289 6.10586 9.11914 5.6875H4.88086C4.83711 6.10586 4.8125 6.54609 4.8125 7C4.8125 7.45391 4.83711 7.89414 4.88086 8.3125ZM8.90313 4.375C8.72539 3.70781 8.54219 3.11992 8.30156 2.6373C7.71367 1.50992 7.20234 1.3125 7 1.3125C6.79766 1.3125 6.26172 1.50992 5.69844 2.6373C5.45781 3.11992 5.25 3.70781 5.09687 4.375H8.90313ZM10.4398 5.6875C10.4781 6.11133 10.5 6.55156 10.5 7C10.5 7.44844 10.4781 7.88867 10.4398 8.3125H12.5344C12.6355 7.89141 12.6875 7.45117 12.6875 7C12.6875 6.54883 12.6355 6.10859 12.5344 5.6875H10.4398ZM9.3543 1.82137C9.73984 2.52273 10.0461 3.39336 10.2457 4.375H12.0477C11.4625 3.25117 10.5109 2.34828 9.3543 1.82137ZM4.6457 1.82137C3.48906 2.34828 2.53859 3.25117 1.95316 4.375H3.7543C3.95391 3.39336 4.26016 2.52273 4.6457 1.82137ZM1.3125 7C1.3125 7.45117 1.36527 7.89141 1.4648 8.3125H3.56016C3.52187 7.88867 3.5 7.44844 3.5 7C3.5 6.55156 3.52187 6.11133 3.56016 5.6875H1.4648C1.36527 6.10859 1.3125 6.54883 1.3125 7ZM12.0477 9.625H10.2457C10.0461 10.6066 9.73984 11.4762 9.3543 12.1789C10.5109 11.6512 11.4625 10.7488 12.0477 9.625ZM3.7543 9.625H1.95316C2.53859 10.7488 3.48906 11.6512 4.6457 12.1789C4.26016 11.4762 3.95391 10.6066 3.7543 9.625Z" fill="#424242"/>
</svg>
