<svg width="171" height="40" viewBox="0 0 171 40" fill="none" xmlns="http://www.w3.org/2000/svg">
<path fill-rule="evenodd" clip-rule="evenodd" d="M8.55273 3.59786C7.12207 4.59822 5.82837 5.78097 4.70532 7.11239C9.29462 6.68632 15.1251 7.38204 21.8943 10.7666C29.1229 14.3808 34.9437 14.503 38.9947 13.7216C38.6271 12.6087 38.1643 11.5391 37.6162 10.5223C32.9789 11.0114 27.0339 10.364 20.1055 6.89997C15.7059 4.70017 11.8277 3.794 8.55273 3.59786ZM34.9073 6.66664C31.2452 2.57499 25.9233 0 19.9999 0C18.2604 0 16.5726 0.222107 14.9636 0.63948C17.1428 1.23408 19.4578 2.10398 21.8943 3.32226C26.9669 5.85852 31.3463 6.67515 34.9073 6.66664ZM39.8608 17.628C34.9668 18.5944 28.2087 18.3959 20.1055 14.3443C12.5299 10.5565 6.50043 10.6042 2.4339 11.5079C2.224 11.5545 2.01904 11.6035 1.81903 11.6545C1.28662 12.8124 0.861634 14.03 0.556702 15.2944C0.882386 15.2074 1.21893 15.1247 1.56616 15.0475C6.49957 13.9512 13.47 13.9988 21.8943 18.211C29.47 21.9988 35.4995 21.9511 39.5661 21.0474C39.7054 21.0165 39.8427 20.9845 39.9777 20.9515C39.9925 20.6362 39.9999 20.3189 39.9999 19.9999C39.9999 19.1974 39.9527 18.4059 39.8608 17.628ZM39.3247 25.1722C34.4782 26.0195 27.9169 25.6943 20.1055 21.7887C12.5299 18.0009 6.50043 18.0486 2.4339 18.9523C1.53125 19.1528 0.719239 19.3971 0.002931 19.655C0.000977999 19.7697 0 19.8847 0 19.9999C0 31.0456 8.95429 39.9999 19.9999 39.9999C29.257 39.9999 37.0452 33.7108 39.3247 25.1722Z" fill="#7F57F1"/>
<path d="M46.7679 20.004C46.7679 18.34 47.1119 16.86 47.7999 15.564C48.5039 14.252 49.4959 13.236 50.7759 12.516C52.0559 11.78 53.5279 11.412 55.1919 11.412C57.3039 11.412 59.0799 11.98 60.5199 13.116C61.9599 14.236 62.8879 15.764 63.3039 17.7H58.2399C57.9359 17.06 57.5119 16.572 56.9679 16.236C56.4399 15.9 55.8239 15.732 55.1199 15.732C54.0319 15.732 53.1599 16.124 52.5039 16.908C51.8639 17.676 51.5439 18.708 51.5439 20.004C51.5439 21.316 51.8639 22.364 52.5039 23.148C53.1599 23.916 54.0319 24.3 55.1199 24.3C55.8239 24.3 56.4399 24.132 56.9679 23.796C57.5119 23.46 57.9359 22.972 58.2399 22.332H63.3039C62.8879 24.268 61.9599 25.804 60.5199 26.94C59.0799 28.06 57.3039 28.62 55.1919 28.62C53.5279 28.62 52.0559 28.26 50.7759 27.54C49.4959 26.804 48.5039 25.788 47.7999 24.492C47.1119 23.18 46.7679 21.684 46.7679 20.004ZM64.7634 21.756C64.7634 20.364 65.0114 19.148 65.5074 18.108C66.0194 17.068 66.7074 16.268 67.5714 15.708C68.4514 15.148 69.4274 14.868 70.4994 14.868C71.4274 14.868 72.2274 15.052 72.8994 15.42C73.5714 15.788 74.0914 16.284 74.4594 16.908V15.036H79.1634V28.5H74.4594V26.628C74.0914 27.252 73.5634 27.748 72.8754 28.116C72.2034 28.484 71.4114 28.668 70.4994 28.668C69.4274 28.668 68.4514 28.388 67.5714 27.828C66.7074 27.268 66.0194 26.468 65.5074 25.428C65.0114 24.372 64.7634 23.148 64.7634 21.756ZM74.4594 21.756C74.4594 20.892 74.2194 20.212 73.7394 19.716C73.2754 19.22 72.6994 18.972 72.0114 18.972C71.3074 18.972 70.7234 19.22 70.2594 19.716C69.7954 20.196 69.5634 20.876 69.5634 21.756C69.5634 22.62 69.7954 23.308 70.2594 23.82C70.7234 24.316 71.3074 24.564 72.0114 24.564C72.6994 24.564 73.2754 24.316 73.7394 23.82C74.2194 23.324 74.4594 22.636 74.4594 21.756ZM86.5479 17.412C87.0759 16.644 87.7159 16.036 88.4679 15.588C89.2199 15.14 90.0279 14.916 90.8919 14.916V19.932H89.5719C88.5479 19.932 87.7879 20.132 87.2919 20.532C86.7959 20.932 86.5479 21.628 86.5479 22.62V28.5H81.8439V15.036H86.5479V17.412ZM105.442 21.612C105.442 21.98 105.418 22.348 105.37 22.716H96.4663C96.5143 23.452 96.7143 24.004 97.0663 24.372C97.4343 24.724 97.8983 24.9 98.4583 24.9C99.2423 24.9 99.8023 24.548 100.138 23.844H105.154C104.946 24.772 104.538 25.604 103.93 26.34C103.338 27.06 102.586 27.628 101.674 28.044C100.762 28.46 99.7543 28.668 98.6503 28.668C97.3223 28.668 96.1383 28.388 95.0983 27.828C94.0743 27.268 93.2663 26.468 92.6743 25.428C92.0983 24.388 91.8103 23.164 91.8103 21.756C91.8103 20.348 92.0983 19.132 92.6743 18.108C93.2503 17.068 94.0503 16.268 95.0743 15.708C96.1143 15.148 97.3063 14.868 98.6503 14.868C99.9783 14.868 101.154 15.14 102.178 15.684C103.202 16.228 104.002 17.012 104.578 18.036C105.154 19.044 105.442 20.236 105.442 21.612ZM100.642 20.436C100.642 19.86 100.45 19.412 100.066 19.092C99.6823 18.756 99.2023 18.588 98.6263 18.588C98.0503 18.588 97.5783 18.748 97.2103 19.068C96.8423 19.372 96.6023 19.828 96.4903 20.436H100.642ZM120.735 17.22C120.735 18.244 120.495 19.18 120.015 20.028C119.551 20.86 118.839 21.532 117.879 22.044C116.935 22.54 115.775 22.788 114.399 22.788H112.071V28.5H107.367V11.58H114.399C115.759 11.58 116.911 11.82 117.855 12.3C118.815 12.78 119.535 13.444 120.015 14.292C120.495 15.14 120.735 16.116 120.735 17.22ZM113.943 19.044C115.271 19.044 115.935 18.436 115.935 17.22C115.935 15.988 115.271 15.372 113.943 15.372H112.071V19.044H113.943ZM128.889 28.668C127.545 28.668 126.337 28.388 125.265 27.828C124.209 27.268 123.377 26.468 122.769 25.428C122.161 24.388 121.857 23.164 121.857 21.756C121.857 20.364 122.161 19.148 122.769 18.108C123.393 17.068 124.233 16.268 125.289 15.708C126.361 15.148 127.569 14.868 128.913 14.868C130.257 14.868 131.457 15.148 132.513 15.708C133.585 16.268 134.425 17.068 135.033 18.108C135.657 19.148 135.969 20.364 135.969 21.756C135.969 23.148 135.657 24.372 135.033 25.428C134.425 26.468 133.585 27.268 132.513 27.828C131.441 28.388 130.233 28.668 128.889 28.668ZM128.889 24.588C129.545 24.588 130.089 24.348 130.521 23.868C130.969 23.372 131.193 22.668 131.193 21.756C131.193 20.844 130.969 20.148 130.521 19.668C130.089 19.188 129.553 18.948 128.913 18.948C128.273 18.948 127.737 19.188 127.305 19.668C126.873 20.148 126.657 20.844 126.657 21.756C126.657 22.684 126.865 23.388 127.281 23.868C127.697 24.348 128.233 24.588 128.889 24.588ZM140.259 13.788C139.427 13.788 138.755 13.564 138.243 13.116C137.747 12.652 137.499 12.076 137.499 11.388C137.499 10.684 137.747 10.1 138.243 9.63597C138.755 9.17197 139.427 8.93997 140.259 8.93997C141.075 8.93997 141.731 9.17197 142.227 9.63597C142.739 10.1 142.995 10.684 142.995 11.388C142.995 12.076 142.739 12.652 142.227 13.116C141.731 13.564 141.075 13.788 140.259 13.788ZM142.587 15.036V28.5H137.883V15.036H142.587ZM154.074 14.916C155.626 14.916 156.858 15.436 157.77 16.476C158.682 17.5 159.138 18.892 159.138 20.652V28.5H154.434V21.276C154.434 20.508 154.234 19.908 153.834 19.476C153.434 19.028 152.898 18.804 152.226 18.804C151.522 18.804 150.97 19.028 150.57 19.476C150.17 19.908 149.97 20.508 149.97 21.276V28.5H145.266V15.036H149.97V16.956C150.386 16.348 150.946 15.86 151.65 15.492C152.354 15.108 153.162 14.916 154.074 14.916ZM169.663 24.492V28.5H167.623C164.183 28.5 162.463 26.796 162.463 23.388V18.948H160.807V15.036H162.463V11.772H167.191V15.036H169.639V18.948H167.191V23.46C167.191 23.828 167.271 24.092 167.431 24.252C167.607 24.412 167.895 24.492 168.295 24.492H169.663Z" fill="#232A36"/>
</svg>
