<svg xmlns="http://www.w3.org/2000/svg"  viewBox="0 0 1000 1000">
  <g fill="none" fill-rule="evenodd" transform="translate(265 128)">
    <path stroke="#0C1121" stroke-linecap="round" stroke-linejoin="round" stroke-width="27.011" d="M347.838642,650.067519 C367.767642,675.933619 387.697942,701.799719 407.626942,727.664519"/>
    <path fill="#0C1121" d="M99.6808616 728.906799C100.147562 736.870599 93.7593616 743.559099 85.7825616 743.457699L80.5591616 743.393999 33.5212616 742.801199C29.4483616 742.753099 25.8824616 739.770899 25.2389616 735.612199 24.5213616 730.978999 27.6946616 726.640899 32.3278616 725.923299L57.3502616 721.553999 83.1864616 716.243499C91.3946616 714.556099 99.1907616 720.539999 99.6808616 728.906799M394.851192 728.906799C394.384492 736.870599 400.772692 743.559099 408.749492 743.457699L413.972892 743.393999 461.010792 742.801199C465.083692 742.753099 468.649592 739.770899 469.293092 735.612199 470.010692 730.978999 466.837392 726.640899 462.204192 725.923299L437.181792 721.553999 411.345592 716.243499C403.137392 714.556099 395.341292 720.539999 394.851192 728.906799"/>
    <path stroke="#0C1121" stroke-linecap="round" stroke-linejoin="round" stroke-width="27.011" d="M30.4996716,664.973189 C34.1500716,671.688989 38.3685716,678.368389 43.1278716,684.942489 C54.5366716,700.708889 69.0446716,715.875989 86.2436716,729.518189"/>
    <path stroke="#14254C" stroke-linecap="round" stroke-linejoin="round" stroke-width="60.025" d="M139.109992,490.345359 C117.962892,494.623659 91.6365916,503.436359 66.0616916,521.793659 C56.6392916,528.557559 29.0324916,549.512259 18.5661916,577.977059 C13.0736916,592.914059 12.4418916,609.693159 16.1286916,627.089759 C18.1514916,636.627859 21.4703916,646.351859 25.9995916,656.061559"/>
    <path stroke="#000" stroke-width="32.014" d="M3.59071159,355.279909 C4.16791159,357.890309 7.97821159,373.905009 22.8762116,381.454109 C29.0798116,384.596209 34.9896116,385.148709 38.7609116,385.142265"/>
    <path stroke="#0C1B38" stroke-linecap="round" stroke-width="45.019" d="M120.683402,280.890399 C78.9365016,255.138699 30.5947016,263.946199 10.4785016,292.370699 C-7.67729841,318.022299 2.93720159,351.485599 4.50890159,356.198099"/>
    <path fill="#22B573" d="M187.392122,176.339459 C199.469122,163.295259 202.434422,152.104859 206.659422,145.751759 C214.430822,134.062159 236.339722,124.860759 298.939922,136.603659 C297.994822,146.679959 297.051022,156.756259 296.105922,166.833859 C249.502222,151.045359 228.858222,156.609359 218.811822,165.687259 C214.242322,169.816059 209.698822,176.076859 199.551022,182.714659 C187.663822,190.489959 175.074622,192.294359 166.367222,192.618059 C171.911722,189.587759 179.833922,184.503459 187.392122,176.339459"/>
    <path fill="#22B573" d="M298.939532,183.837339 L298.939532,211.233539 C268.245232,194.763839 247.237232,194.992639 233.558632,198.459739 C224.115432,200.853039 214.659232,204.776439 199.919832,204.719239 C186.449232,204.665939 175.566932,198.852339 168.652232,194.138539 C177.587132,194.298439 190.334932,193.314339 203.835432,187.395439 C216.142532,182.001739 222.112132,177.117639 228.404132,173.796139 C240.258832,167.541839 260.872932,164.876839 298.939532,183.837339"/>
    <path stroke="#14254C" stroke-linecap="round" stroke-linejoin="round" stroke-width="60.025" d="M188.696542,489.202789 C229.049842,519.344589 273.370742,558.461589 315.966542,608.800189 C329.845342,625.199689 342.396842,641.440589 353.752342,657.288889"/>
    <path fill="#000" d="M160.460932,480.408679 L160.460932,480.408679 C135.217532,482.111679 112.864032,464.224979 108.990032,439.220779 L90.7757316,321.663079 C82.8132316,282.934779 111.353432,246.260479 150.851332,244.466479 C190.349232,242.672479 222.096532,276.608979 217.676532,315.900179 L205.704832,436.568779 C203.353132,460.270379 184.224932,478.805779 160.460932,480.408679"/>
    <path fill="#4F5D6C" d="M51.8303316,323.408329 C51.0516316,272.596529 51.3779316,189.345829 52.5791316,142.055729 C53.7933316,94.2261291 56.0722316,48.1359291 59.1753316,3.9073291 C59.3768316,1.0382291 56.3348316,-0.919570904 53.7972316,0.442829096 C50.9294316,1.9846291 48.0616316,3.5277291 45.1938316,5.0682291 C44.0992316,5.6558291 43.3777316,6.7556291 43.2802316,7.9932291 C39.9275316,50.3875291 37.1975316,94.1468291 35.2280316,139.200929 C33.1285316,187.259329 31.7661316,271.945229 31.4437316,323.774929"/>
    <polygon fill="#4F5D6C" points="52.015 350.772 72.664 339.055 72.688 335.619 42.116 317.721 11.306 335.202 11.282 338.639 31.296 350.354"/>
    <path fill="#4F5D6C" d="M51.6075116,411.422359 L51.2019116,471.668259 C51.1850116,474.187659 49.1258116,476.216959 46.6012116,476.200164 L35.0208116,476.122059 C32.4962116,476.105159 30.4643116,474.048559 30.4811069,471.527859 L31.1429116,339.376359 L51.8636116,339.516759 L51.9182116,365.243759 L51.6075116,411.422359 Z"/>
    <path fill="#000" d="M61.9535616,417.177199 L60.1946616,439.728299 C59.7773616,445.081699 55.0986616,449.083099 49.7452616,448.665799 L24.1001616,446.665099 C20.1949616,446.359599 17.2751616,442.947099 17.5806616,439.041899 L19.7516616,411.206299 C20.0558616,407.301099 23.4683616,404.382599 27.3735616,404.688099 L52.9783616,406.684899 C58.3538616,407.103499 62.3721616,411.800399 61.9535616,417.177199"/>
    <line x1="42.738" x2="89.6" y1="431.967" y2="434.116" stroke="#000" stroke-width="32.014"/>
    <path fill="#000" d="M18.1712516,369.920119 L17.8826516,392.537519 C17.8150516,397.906519 22.1115516,402.314819 27.4805516,402.383719 L53.2023516,402.711319 C57.1179516,402.760719 60.3341516,399.626419 60.3848516,395.709519 L60.7410516,367.790719 C60.7904516,363.875119 57.6561516,360.658919 53.7392516,360.609519 L28.0577516,360.281919 C22.6666516,360.213019 18.2401516,364.529019 18.1712516,369.920119"/>
    <path fill="#FFF" d="M130.231512,238.547709 C131.189612,238.840209 132.724912,239.189909 134.595612,239.189909 C135.895612,239.189909 137.356812,239.020909 138.898612,238.545109 C142.967612,237.293209 145.396012,234.616509 146.481512,233.131909"/>
    <path fill="#0C1B38" d="M146.550672,266.274369 L146.550672,266.274369 C127.408172,266.274369 111.890072,250.754969 111.890072,231.613769 L111.890072,194.081469 C111.890072,170.672369 130.867472,151.696269 154.275272,151.696269 C177.683072,151.696269 196.659172,170.672369 196.659172,194.081469 L179.211872,243.213669 C174.303072,257.037869 161.221172,266.274369 146.550672,266.274369"/>
    <polygon fill="#22B573" points="111.89 202.732 198.802 202.732 198.802 182.893 111.89 182.893"/>
    <path fill="#E9AC6A" d="M111.890592,213.333559 L163.665692,213.333559 C169.269992,213.333559 173.855092,208.748459 173.855092,203.144159 C173.855092,197.541159 169.269992,192.954759 163.665692,192.954759 L111.890592,192.954759 L111.890592,213.333559 Z"/>
    <polygon fill="#E26841" points="120.608 213.334 129.455 213.334 129.455 196.328"/>
    <path fill="#000" d="M62.0068616,485.882849 C78.6390616,476.972649 159.892962,429.699449 159.892962,429.699449 C159.892962,429.699449 239.326862,482.619849 254.972362,494.354949 C248.829862,500.457149 214.256362,533.620149 160.195862,532.715349 C101.932462,531.741649 67.1509616,491.969449 62.0068616,485.882849"/>
    <polygon fill="#22B573" points="107.009 458.459 206.749 458.459 206.749 425.116 107.009 425.116"/>
    <path stroke="#0C1B38" stroke-linecap="round" stroke-width="45.019" d="M192.317302,295.585209 C194.916002,303.270809 206.023202,338.842709 187.725702,374.565409 C169.504902,410.133409 129.405102,431.649709 85.7849016,429.208309"/>
    <path fill="#FFF" d="M114.606162 205.256789L118.474962 205.256789C119.992062 205.256789 121.221862 204.026989 121.221862 202.508589L121.221862 202.323989C121.221862 200.805589 119.992062 199.575789 118.474962 199.575789L114.606162 199.575789C113.089062 199.575789 111.857962 200.805589 111.857962 202.323989L111.857962 202.508589C111.857962 204.026989 113.089062 205.256789 114.606162 205.256789M152.687582 205.256789L156.556382 205.256789C158.073482 205.256789 159.303282 204.026989 159.303282 202.508589L159.303282 202.323989C159.303282 200.805589 158.073482 199.575789 156.556382 199.575789L152.687582 199.575789C151.170482 199.575789 149.939382 200.805589 149.939382 202.323989L149.939382 202.508589C149.939382 204.026989 151.170482 205.256789 152.687582 205.256789"/>
    <path fill="#000" d="M114.958982 202.435919C114.958982 204.025819 113.670682 205.312819 112.082082 205.312819 110.492182 205.312819 109.203882 204.025819 109.203882 202.435919 109.203882 200.846019 110.492182 199.557719 112.082082 199.557719 113.670682 199.557719 114.958982 200.846019 114.958982 202.435919M152.900912 202.435919C152.900912 204.025819 151.612612 205.312819 150.024012 205.312819 148.434112 205.312819 147.145812 204.025819 147.145812 202.435919 147.145812 200.846019 148.434112 199.557719 150.024012 199.557719 151.612612 199.557719 152.900912 200.846019 152.900912 202.435919"/>
  </g>
</svg>
