<?xml version="1.0" standalone="no"?>
<!DOCTYPE svg PUBLIC "-//W3C//DTD SVG 1.1//EN" "http://www.w3.org/Graphics/SVG/1.1/DTD/svg11.dtd" >
<svg xmlns="http://www.w3.org/2000/svg">
<metadata>Generated by IcoMoon</metadata>
<defs>
<font id="widgets" horiz-adv-x="1024">
<font-face units-per-em="1024" ascent="880.0255999999999" descent="-143.9744" />
<missing-glyph horiz-adv-x="1024" />
<glyph unicode="&#x20;" horiz-adv-x="512" d="" />
<glyph unicode="&#xe800;" glyph-name="actionsheet" d="M85.333-42.667h853.333l-85.333-85.333h-768v85.333zM85.333 42.667h768l85.333 85.333h-853.333v-85.333zM85.333 213.333h768l85.333 85.333h-853.333v-85.333zM938.667 896v-512h-853.333v512h853.333zM853.333 810.667h-682.667v-341.333h682.667v341.333z" />
<glyph unicode="&#xe801;" glyph-name="application" d="M85.333 725.333v-682.667h512v-170.667h341.333v853.333h-853.333zM853.333-42.667h-170.667v170.667h-512v512h682.667v-682.667zM85.333-42.667h170.667v-85.333h-170.667v85.333zM682.667 426.667h-426.667v85.333h512l-85.333-85.333zM256 256v85.333h341.333l-85.333-85.333h-256zM341.333-42.667h170.667v-85.333h-170.667v85.333zM938.667 896v-85.333h-170.667v85.333h170.667zM682.667 810.667h-341.333v85.333h341.333v-85.333zM256 810.667h-170.667v85.333h170.667v-85.333z" />
<glyph unicode="&#xe802;" glyph-name="areacharts" d="M682.667 504.661l-170.667 170.667-298.667-298.667-213.333 213.333v-632.661h1024v888.661l-341.333-341.333zM938.667 42.667h-853.333v341.333l128-128 298.667 298.667 170.667-170.667 256 256v-597.333z" />
<glyph unicode="&#xe803;" glyph-name="autocomplete" d="M853.333 77.995l-120.661-120.661h-562.005v682.667h-85.333v-768h682.667l170.667 170.667v640h-85.333v-604.672zM256 597.333v-85.333h426.667l85.333 85.333h-512zM768 426.667h-512v-85.333h426.667l85.333 85.333zM256 170.667h256l85.333 85.333h-341.333v-85.333zM597.333 853.333v-85.333h341.333l85.333 85.333h-426.667zM0 896h512v-170.667h-512v170.667z" />
<glyph unicode="&#xe804;" glyph-name="barcharts" d="M0 42.667v-85.333h938.667l85.333 85.333h-1024zM512 597.333h170.667v-469.333h-170.667v469.333zM768 810.667h170.667v-682.667h-170.667v682.667zM256 725.333h170.667v-597.333h-170.667v597.333zM0 512h170.667v-384h-170.667v384z" />
<glyph unicode="&#xe805;" glyph-name="barcode" d="M42.667-42.667h85.333v853.333l-85.333-85.333v-768zM213.333 213.333h85.333v597.333l-85.333-85.333v-512zM384-42.667h85.333v853.333l-85.333-85.333v-768zM554.667 213.333h85.333v597.333l-85.333-85.333v-512zM725.333 213.333h85.333v597.333l-85.333-85.333v-512zM896 725.333v-768h85.333v853.333l-85.333-85.333z" />
<glyph unicode="&#xe806;" glyph-name="boxplotcharts" d="M0 42.667v-85.333h938.667l85.333 85.333h-1024zM512 512h170.667v-128h-170.667v128zM256 554.667h170.667v-85.333h-170.667v85.333zM0 512h170.667v-213.333h-170.667v213.333zM128 810.667l-85.333-85.333v-170.667h85.333v256zM384 768l-85.333-85.333v-85.333h85.333v170.667zM640 725.333l-85.333-85.333v-85.333h85.333v170.667zM42.667 256h85.333v-128h-85.333v128zM298.667 426.667h85.333v-170.667h-85.333v170.667zM768 426.667h170.667v-85.333h-170.667v85.333zM810.667 298.667h85.333v-85.333h-85.333v85.333zM896 682.667l-85.333-85.333v-128h85.333v213.333zM554.667 341.333h85.333v-170.667h-85.333v170.667z" />
<glyph unicode="&#xe807;" glyph-name="bubblecharts" d="M0 85.333v-85.333h938.667l85.333 85.333h-1024zM192 384c35.371 0 64-28.672 64-64s-28.629-64-64-64-64 28.672-64 64 28.629 64 64 64zM853.333 725.333c47.104 0 85.333-38.229 85.333-85.333s-38.229-85.333-85.333-85.333-85.333 38.229-85.333 85.333 38.229 85.333 85.333 85.333zM640 170.667c94.208 0 170.667 76.416 170.667 170.667s-76.459 170.667-170.667 170.667-170.667-76.416-170.667-170.667 76.459-170.667 170.667-170.667zM640 440.875c55.040 0 99.541-44.544 99.541-99.541s-44.501-99.584-99.541-99.584-99.541 44.587-99.541 99.584 44.501 99.541 99.541 99.541zM341.333 426.667c70.656 0 128 57.301 128 128s-57.344 128-128 128-128-57.301-128-128 57.344-128 128-128zM341.333 597.333c23.595 0 42.667-19.115 42.667-42.667s-19.072-42.667-42.667-42.667-42.667 19.115-42.667 42.667 19.072 42.667 42.667 42.667z" />
<glyph unicode="&#xe808;" glyph-name="bulletcharts" d="M0 554.667h512v-170.667h-512v170.667zM682.667 554.667h256v-170.667h-256v170.667zM554.667 298.667h85.333v426.667l-85.333-85.333v-341.333zM0 128h1024l-85.333-85.333h-938.667v85.333z" />
<glyph unicode="&#xe809;" glyph-name="button" d="M810.667 426.667h-597.333v-85.333h512l85.333 85.333zM0 682.667v-597.333h1024v597.333h-1024zM938.667 170.667h-853.333v426.667h853.333v-426.667z" />
<glyph unicode="&#xe80a;" glyph-name="buttongroup" d="M42.667 554.667v-384h981.333v384h-981.333zM128 256v213.333h213.333v-213.333h-213.333zM426.667 256v213.333h213.333v-213.333h-213.333zM938.667 256h-213.333v213.333h213.333v-213.333z" />
<glyph unicode="&#xe80b;" glyph-name="calendar" d="M853.333 77.995l-120.661-120.661h-562.005v725.333h-85.333v-810.667h682.667l170.667 170.667v640h-85.333v-604.672zM640 896h85.333v-170.667h-85.333v170.667zM384 554.667l-85.333-85.333v-341.333h85.333v426.667zM469.333 469.333h170.667v-85.333h-85.333l-85.333-85.333v-85.333l85.333-85.333h85.333l85.333 85.333h-170.667v85.333h85.333l85.333 85.333v85.333l-85.333 85.333h-85.333l-85.333-85.333zM298.667 896h85.333v-170.667h-85.333v170.667zM0 853.333h256v-85.333h-256v85.333zM768 853.333v-85.333h170.667l85.333 85.333h-256zM426.667 853.333h170.667v-85.333h-170.667v85.333z" />
<glyph unicode="&#xe80c;" glyph-name="colorpicker" d="M512 896c0 0-384-341.333-384-640 0-212.096 171.904-384 384-384s384 171.904 384 384c0 298.667-384 640-384 640zM512-42.667c-164.949 0-298.667 133.717-298.667 298.667 0 256 298.667 524.459 298.667 524.459s298.667-268.459 298.667-524.459c0-164.949-133.717-298.667-298.667-298.667zM469.333 170.667v-85.333c117.845 0 213.333 95.488 213.333 213.333h-85.333c0-70.699-57.301-128-128-128z" />
<glyph unicode="&#xe80d;" glyph-name="datasource" d="M512 469.333c47.104 0 85.333-38.229 85.333-85.333s-38.229-85.333-85.333-85.333-85.333 38.229-85.333 85.333 38.229 85.333 85.333 85.333zM1024 341.333l-85.333 85.333h-135.296l67.627 67.669-60.331 60.331-170.667-170.667 170.667-170.667 60.331 60.331-67.627 67.669h220.629zM213.333 554.667l-60.373-60.331 67.669-67.669h-220.629l85.333-85.333h135.296l-67.669-67.669 60.373-60.331 170.667 170.667-170.667 170.667zM682.667 682.667l-60.331 60.331-67.669-67.627v220.629l-85.333-85.333v-135.296l-67.669 67.627-60.331-60.331 170.667-170.667 170.667 170.667zM341.333 85.333l60.331-60.373 67.669 67.669v-220.629l85.333 85.333v135.296l67.669-67.669 60.331 60.373-170.667 170.667-170.667-170.667z" />
<glyph unicode="&#xe80e;" glyph-name="datepicker" d="M426.667 597.333h128v-128h-128v128zM597.333 597.333h128v-128h-128v128zM256 426.667h128v-128h-128v128zM426.667 426.667h128v-128h-128v128zM597.333 426.667h128v-128h-128v128zM256 256h128v-128h-128v128zM426.667 256h128v-128h-128v128zM810.667 77.995l-120.661-120.661h-519.339v768h-85.333v-853.333h640l170.667 170.667v682.667h-85.333v-647.339zM0 896v-85.333h938.667l85.333 85.333h-1024z" />
<glyph unicode="&#xe80f;" glyph-name="diagram" d="M207.232 523.605l165.163 165.12 60.331-60.373-165.163-165.12-60.331 60.373zM512 853.333c47.104 0 85.333-38.229 85.333-85.333s-38.229-85.333-85.333-85.333-85.333 38.229-85.333 85.333 38.229 85.333 85.333 85.333zM128 469.333c47.104 0 85.333-38.229 85.333-85.333s-38.229-85.333-85.333-85.333-85.333 38.229-85.333 85.333 38.229 85.333 85.333 85.333zM591.232 628.395l60.331 60.331 165.163-165.163-60.331-60.331-165.163 165.163zM896 469.333c47.104 0 85.333-38.229 85.333-85.333s-38.229-85.333-85.333-85.333-85.333 38.229-85.333 85.333 38.229 85.333 85.333 85.333zM512 85.333c47.104 0 85.333-38.229 85.333-85.333s-38.229-85.333-85.333-85.333-85.333 38.229-85.333 85.333 38.229 85.333 85.333 85.333zM469.333 597.333h85.333v-426.667h-85.333v426.667z" />
<glyph unicode="&#xe810;" glyph-name="donutcharts" d="M470.357 637.227v86.229c-154.24-19.328-276.437-141.355-295.723-295.68h86.229c18.048 107.093 102.443 191.403 209.493 209.451zM513.024 129.067c-126.805 0-231.808 92.331-252.16 213.333h-86.229c21.035-168.32 164.395-298.667 338.389-298.667 188.459 0 341.333 152.832 341.333 341.333 0 174.037-130.347 317.355-298.667 338.389v-86.229c121.003-20.352 213.333-125.355 213.333-252.16-0.043-141.312-114.603-256-256-256zM937.515 427.733h85.504c-20.565 248.619-218.667 446.635-467.328 467.2v-85.333c201.557-20.011 361.813-180.309 381.824-381.867zM86.357 385.067c0 221.227 168.363 403.115 384 424.491v85.333c-262.741-21.717-469.333-241.493-469.333-509.824 0-115.072 38.4-220.885 102.528-306.432l60.885 60.885c-48.981 69.461-78.080 154.069-78.080 245.547zM513.024-41.6c-113.323 0-216.021 44.501-292.437 116.48l-60.331-60.331c91.819-87.509 215.893-141.483 352.768-141.483 268.331 0 488.149 206.592 509.824 469.333h-85.333c-21.419-215.552-203.264-384-424.491-384z" />
<glyph unicode="&#xe811;" glyph-name="draganddrop" d="M341.333 725.333h-85.333v-682.667h341.333l85.333 85.333h-341.333v597.333zM170.667 554.667h-85.333v-682.667h341.333l85.333 85.333h-341.333v597.333zM853.333 896h-426.667v-682.667h341.333l170.667 170.667v512h-85.333zM853.333 419.328l-120.661-120.661h-220.672v512h341.333v-391.339z" />
<glyph unicode="&#xe812;" glyph-name="drawer" d="M298.667 256h682.667l-85.333-85.333h-597.333v85.333zM298.667 341.333h597.333l85.333 85.333h-682.667v-85.333zM298.667 512h597.333l85.333 85.333h-682.667v-85.333zM298.667 682.667h597.333l85.333 85.333h-682.667v-85.333zM298.667 0h597.333l85.333 85.333h-682.667v-85.333zM213.333 853.333h-170.667v-938.667h170.667v938.667z" />
<glyph unicode="&#xe813;" glyph-name="dropdownlist" d="M853.333 77.995l-120.661-120.661h-562.005v768h-85.333v-853.333h682.667l170.667 170.667v682.667h-85.333v-647.339zM256 640v-85.333h426.667l85.333 85.333h-512zM0 896v-85.333h938.667l85.333 85.333h-1024zM256 384h426.667l85.333 85.333h-512v-85.333zM256 213.333h256l85.333 85.333h-341.333v-85.333z" />
<glyph unicode="&#xe814;" glyph-name="editor" d="M170.667 640v-85.333h341.333l85.333 85.333h-426.667zM597.333 469.333h-426.667v-85.333h341.333l85.333 85.333zM170.667 213.333h170.667l85.333 85.333h-256v-85.333zM426.667 163.328l-120.661-120.661h120.661l597.333 597.333v120.661l-597.333-597.333zM768 77.995l-120.661-120.661h-562.005v853.333h682.667v-170.667l85.333 85.333v170.667h-853.333v-1024h682.667l170.667 170.667v298.667l-85.333-85.333v-178.005z" />
<glyph unicode="&#xe815;" glyph-name="effects" d="M256 554.667l-60.373-60.331 110.379-110.336-110.379-110.336 60.373-60.331 170.667 170.667-170.667 170.667zM828.331 494.336l-60.331 60.331-170.667-170.667 170.667-170.667 60.331 60.331-110.336 110.336 110.336 110.336zM341.333 128l60.331-60.373 110.336 110.379 110.336-110.379 60.331 60.373-170.667 170.667-170.667-170.667zM682.667 640l-60.331 60.331-110.336-110.336-110.336 110.336-60.331-60.331 170.667-170.667 170.667 170.667z" />
<glyph unicode="&#xe816;" glyph-name="funnelcharts" d="M42.667 853.333v-85.333l341.333-341.376v-511.957l85.333 85.333v462.037l-306.005 305.963h697.344l-306.005-305.963v-376.704l85.333 85.333v255.957l341.333 341.376v85.333h-938.667z" />
<glyph unicode="&#xe817;" glyph-name="globalization" d="M512 896c-282.752 0-512-229.248-512-512s229.248-512 512-512c282.752 0 512 229.248 512 512s-229.248 512-512 512zM554.667 515.499c55.040 2.688 107.435 10.453 156.117 22.485 6.784-35.157 11.563-72.363 13.44-111.317h-169.557v88.832zM554.667 600.747v201.344c56.32-22.869 104.533-90.197 135.253-182.827-41.899-9.643-87.296-16.128-135.253-18.517zM469.333 802.091v-201.387c-47.957 2.432-93.312 8.875-135.211 18.603 30.677 92.587 78.891 159.915 135.211 182.784zM469.333 515.499v-88.832h-169.6c1.92 38.955 6.656 76.16 13.44 111.275 48.725-11.989 101.12-19.755 156.16-22.443zM214.571 426.667h-127.104c6.4 64.555 27.563 124.544 59.52 177.408 25.856-15.403 54.443-29.184 85.504-41.003-9.387-43.093-15.616-88.747-17.92-136.405zM214.571 341.333c2.304-47.659 8.491-93.312 17.877-136.32-31.061-11.861-59.648-25.643-85.504-41.045-31.915 52.821-53.035 112.853-59.477 177.365h127.104zM299.733 341.333h169.6v-88.832c-55.040-2.645-107.435-10.411-156.117-22.443-6.827 35.157-11.563 72.363-13.483 111.275zM469.333 167.296v-201.387c-56.32 22.869-104.533 90.197-135.211 182.827 41.899 9.685 87.253 16.128 135.211 18.56zM554.667-34.091v201.344c47.957-2.389 93.355-8.832 135.253-18.517-30.72-92.629-78.933-160-135.253-182.827zM554.667 252.544v88.789h169.6c-1.92-38.912-6.656-76.16-13.44-111.275-48.725 12.032-101.12 19.797-156.16 22.485zM809.429 341.333h127.104c-6.4-64.555-27.563-124.629-59.52-177.451-25.856 15.403-54.443 29.227-85.504 41.088 9.387 43.008 15.616 88.704 17.92 136.363zM809.429 426.667c-2.304 47.659-8.491 93.355-17.92 136.405 31.061 11.861 59.605 25.643 85.504 41.045 31.915-52.821 53.077-112.896 59.52-177.451h-127.104zM828.16 669.781c-17.792-9.813-37.803-18.603-58.923-26.624-14.891 43.349-33.323 82.517-54.741 116.437 42.965-23.211 81.152-53.845 113.664-89.813zM309.504 759.595c-21.419-33.92-39.851-73.045-54.741-116.395-21.12 8.064-40.96 16.896-58.752 26.752 32.469 35.84 70.613 66.475 113.493 89.643zM195.968 98.048c17.792 9.856 37.632 18.688 58.752 26.795 14.891-43.349 33.365-82.517 54.784-116.437-42.88 23.168-81.067 53.803-113.536 89.643zM714.496 8.405c21.419 33.92 39.893 73.088 54.741 116.437 21.163-8.021 41.173-16.811 58.923-26.624-32.512-35.925-70.699-66.603-113.664-89.813z" />
<glyph unicode="&#xe818;" glyph-name="grid" d="M256 42.667l85.333 85.333h128v-85.333l85.333 85.333h128v-85.333l170.667 170.667h-85.333v128l85.333 85.333h-85.333v128l85.333 85.333h-85.333v85.333h-85.333v-85.333h-128v85.333h-85.333v-85.333h-128v85.333h-85.333v-85.333h-85.333v-85.333h85.333v-128h-85.333v-85.333h85.333v-128h-85.333v-85.333h85.333v-85.333zM682.667 213.333h-128v128h128v-128zM682.667 554.667v-128h-128v128h128zM341.333 554.667h128v-128h-128v128zM341.333 341.333h128v-128h-128v128zM0 896v-1024h853.333l170.667 170.667v853.333h-1024zM938.667 77.995l-120.661-120.661h-732.672v853.333h853.333v-732.672z" />
<glyph unicode="&#xe819;" glyph-name="layout" d="M85.333 725.333v-682.667h256v-170.667h341.333v170.667h256v682.667h-853.333zM853.333 128h-256v-170.667h-170.667v170.667h-256v512h682.667v-512zM85.333-42.667h170.667v-85.333h-170.667v85.333zM682.667 426.667h-426.667v85.333h512l-85.333-85.333zM256 256v85.333h341.333l-85.333-85.333h-256zM768-42.667h170.667v-85.333h-170.667v85.333zM938.667 896v-85.333h-170.667v85.333h170.667zM682.667 810.667h-341.333v85.333h341.333v-85.333zM256 810.667h-170.667v85.333h170.667v-85.333z" />
<glyph unicode="&#xe81a;" glyph-name="lineargauge" d="M426.667 426.667h170.667v-512h-170.667v512zM426.667 853.333h170.667v-256h-170.667v256zM256 554.667v-85.333h426.667l85.333 85.333h-512z" />
<glyph unicode="&#xe81b;" glyph-name="linecharts" d="M0-42.667h1024v-85.333h-1024v85.333zM512 461.995l-170.667-170.667-341.333 341.333v-120.661l341.333-341.333 170.667 170.667 256-256 256 256v120.661l-256-256-256 256zM725.333 504.661l-213.333 213.333-238.336-238.336 60.331-60.331 178.005 178.005 213.333-213.333 298.667 298.667v120.661l-298.667-298.667zM92.672 298.667l-92.672-92.672v-120.661l153.003 153.003-60.331 60.331z" />
<glyph unicode="&#xe81c;" glyph-name="listview" d="M640 341.333h-85.333v-426.667h256l170.667 170.667v256h-341.333zM896 120.661l-120.661-120.661h-135.339v256h256v-135.339zM128 341.333h-85.333v-426.667h256l170.667 170.667v256h-341.333zM384 120.661l-120.661-120.661h-135.339v256h256v-135.339zM896 853.333h-341.333v-426.667h256l170.667 170.667v256h-85.333zM896 632.661l-120.661-120.661h-135.339v256h256v-135.339zM128 853.333h-85.333v-426.667h256l170.667 170.667v256h-341.333zM384 632.661l-120.661-120.661h-135.339v256h256v-135.339z" />
<glyph unicode="&#xe81d;" glyph-name="map" d="M512 896c-212.096 0-384-171.904-384-384 0-298.667 384-640 384-640s384 341.333 384 640c0 212.096-171.904 384-384 384zM512-12.459c0 0-298.667 268.459-298.667 524.459 0 164.949 133.717 298.667 298.667 298.667s298.667-133.717 298.667-298.667c0-256-298.667-524.459-298.667-524.459zM512 725.333c-117.845 0-213.333-95.488-213.333-213.333s95.488-213.333 213.333-213.333c117.845 0 213.333 95.488 213.333 213.333s-95.488 213.333-213.333 213.333zM512 384c-70.656 0-128 57.301-128 128s57.344 128 128 128 128-57.301 128-128-57.344-128-128-128z" />
<glyph unicode="&#xe81e;" glyph-name="maskedtextbox" d="M0 682.667v-597.333h1024v597.333h-1024zM938.667 170.667h-853.333v426.667h853.333v-426.667zM170.667 316.373l60.416-60.373 67.584 67.627 67.669-67.627 60.331 60.373-67.627 67.627 67.627 67.627-60.331 60.331-67.669-67.627-67.669 67.669-60.331-60.331 67.669-67.669-67.669-67.627zM469.333 316.373l60.373-60.373 67.627 67.627 67.669-67.627 60.331 60.373-67.669 67.627 67.669 67.627-60.331 60.331-67.669-67.627-67.669 67.669-60.331-60.331 67.627-67.669-67.627-67.627z" />
<glyph unicode="&#xe81f;" glyph-name="menu" d="M981.333 810.667h-682.667v-85.333h597.333l85.333 85.333zM298.667 469.333h597.333l85.333 85.333h-682.667v-85.333zM298.667 213.333h597.333l85.333 85.333h-682.667v-85.333zM298.667-42.667h597.333l85.333 85.333h-682.667v-85.333zM42.667 853.333h170.667v-170.667h-170.667v170.667zM42.667 597.333h170.667v-170.667h-170.667v170.667zM42.667 341.333h170.667v-170.667h-170.667v170.667zM42.667 85.333h170.667v-170.667h-170.667v170.667z" />
<glyph unicode="&#xe820;" glyph-name="modalview" d="M85.333 725.333v-853.333h682.667l170.667 170.624v682.709h-853.333zM853.333 77.995l-120.661-120.661h-562.005v682.667h682.667v-562.005zM682.667 384h-426.667v85.333h512l-85.333-85.333zM938.667 896v-85.333h-853.333v85.333h853.333zM256 213.333v85.333h341.333l-85.333-85.333h-256z" />
<glyph unicode="&#xe821;" glyph-name="multiselect" d="M853.333 77.995l-120.661-120.661h-562.005v597.333h-85.333v-682.667h682.667l170.667 170.667v512h-85.333v-476.672zM768 469.333h-512v-85.333h426.667l85.333 85.333zM0 640h938.667l85.333 85.333h-1024v-85.333zM256 213.333h256l85.333 85.333h-341.333v-85.333zM1024 896h-597.333v-85.333h512l85.333 85.333zM0 896h341.333v-85.333h-341.333v85.333z" />
<glyph unicode="&#xe822;" glyph-name="mvvm" d="M619.648 105.685l-107.648 107.648-60.373-60.331 67.371-67.328c-2.347-0.043-4.651-0.341-6.997-0.341-164.949 0-298.667 133.76-298.667 298.667 0 106.197 55.637 199.211 139.136 252.16l-61.483 61.568c-98.475-69.547-162.987-184.021-162.987-313.728 0-212.096 171.904-384 384-384 2.645 0 5.163 0.427 7.765 0.469l-68.139-68.139 60.373-60.331 170.667 170.667-63.019 63.019zM545.621 766.293l69.376 69.376-60.331 60.331-170.667-170.667 170.667-170.667 60.331 60.331-64.981 64.981c146.944-18.731 260.651-144 260.651-295.979 0-95.147-44.757-179.84-114.176-234.539l60.843-60.8c84.651 70.443 138.667 176.555 138.667 295.339 0 200.747-154.069 365.227-350.379 382.293z" />
<glyph unicode="&#xe823;" glyph-name="navbar" d="M85.333 725.333v-853.333h682.667l170.667 170.667v682.667h-853.333zM853.333 77.995l-120.661-120.661h-562.005v682.667h682.667v-562.005zM682.667 384h-426.667v85.333h512l-85.333-85.333zM938.667 896v-85.333h-170.667v85.333h170.667zM256 213.333v85.333h341.333l-85.333-85.333h-256zM682.667 810.667h-341.333v85.333h341.333v-85.333zM256 810.667h-170.667v85.333h170.667v-85.333z" />
<glyph unicode="&#xe824;" glyph-name="notification" d="M42.667 896v-768h554.667v-256h85.333l298.667 298.667v725.333h-938.667zM896 205.995l-213.333-213.333v220.672h-554.667v597.333h768v-604.672zM725.333 640h-512v-85.333h426.667l85.333 85.333zM469.333 384l85.333 85.333h-341.333v-85.333h256z" />
<glyph unicode="&#xe825;" glyph-name="numerictextbox" d="M0 682.667v-597.333h1024v597.333h-1024zM938.667 170.667h-853.333v426.667h853.333v-426.667zM512 341.333h-341.333v-85.333h256l85.333 85.333zM768 512h85.333v-85.333h-85.333v85.333zM768 341.333h85.333v-85.333h-85.333v85.333z" />
<glyph unicode="&#xe826;" glyph-name="panelbar" d="M981.333 896h-938.667v-85.333h853.333l85.333 85.333zM810.667 554.667h-597.333v-85.333h512l85.333 85.333zM213.333 298.667h341.333l85.333 85.333h-426.667v-85.333zM42.667 42.667h853.333l85.333 85.333h-938.667v-85.333zM42.667-128h853.333l85.333 85.333h-938.667v-85.333zM42.667 725.333v-512h85.333v426.667h768l85.333 85.333h-938.667z" />
<glyph unicode="&#xe827;" glyph-name="piecharts" d="M555.648 894.933v-467.157h467.328c-20.565 248.576-218.624 446.592-467.328 467.157zM640.981 791.979c133.248-41.429 237.525-145.707 278.997-278.912h-278.997v278.912zM470.357 894.933c-262.741-21.717-469.333-241.451-469.333-509.824 0-125.995 45.739-241.237 121.259-330.411l348.075 348.075v492.16zM385.024 438.101l-250.155-250.197c-31.616 60.629-48.512 128.256-48.512 197.205 0 188.032 125.355 351.659 298.667 406.571v-353.579zM182.613-5.675c89.216-75.52 204.416-121.259 330.411-121.259 268.331 0 488.149 206.592 509.824 469.333h-492.16l-348.075-348.075zM919.595 257.067c-54.912-173.355-218.496-298.667-406.571-298.667-68.949 0-136.619 16.896-197.12 48.512l250.112 250.155h353.579z" />
<glyph unicode="&#xe828;" glyph-name="polarcharts" d="M725.333 512l-426.667 384-298.667-725.333 512 128 42.667-426.667 384 298.667 85.333 512-298.667-170.667zM859.947 217.6l-235.733-183.424-37.12 371.243-443.861-111.019 188.288 457.259 382.592-344.363 196.224 112.085-50.389-301.781z" />
<glyph unicode="&#xe829;" glyph-name="popover" d="M256 384h512l-85.333-85.333h-426.667v85.333zM256 128h256l85.333 85.333h-341.333v-85.333zM938.667 640v-768h-853.333v768h213.333l213.333 213.333 213.333-213.333h213.333zM853.333 554.667h-163.371l-177.963 177.963-178.005-177.963h-163.328v-597.333h682.667v597.333z" />
<glyph unicode="&#xe82a;" glyph-name="progressbar" d="M1024 768h-170.667v-85.333h85.333l85.333 85.333zM0 810.667h768v-170.667h-768v170.667zM597.333 0h341.333l85.333 85.333h-426.667v-85.333zM0 128h512v-170.667h-512v170.667zM256 341.333h682.667l85.333 85.333h-768v-85.333zM0 469.333h170.667v-170.667h-170.667v170.667z" />
<glyph unicode="&#xe82b;" glyph-name="qrcode" d="M0 42.667h170.667v-170.667h-170.667v170.667zM85.333 213.333v85.333h-85.333v-170.667h85.333v85.333zM512 42.667v85.333h-170.667v-170.667h85.333v85.333h85.333zM597.333 213.333h256v85.333h-341.333v-170.667h85.333v85.333zM682.667-42.667h85.333v-85.333h-85.333v85.333zM426.667-42.667v-85.333h170.667v85.333h-170.667zM682.667 896h85.333v-85.333h-85.333v85.333zM256-42.667h85.333v-85.333h-85.333v85.333zM938.667 469.333v-85.333h85.333v170.667h-85.333v-85.333zM85.333 469.333h85.333v-85.333h-85.333v85.333zM341.333 213.333h85.333v85.333h-170.667v-85.333h85.333zM170.667 384h85.333v-85.333h-85.333v85.333zM170.667 640h85.333v-85.333h-85.333v85.333zM341.333 810.667h85.333v-85.333h-85.333v85.333zM512 725.333h85.333v170.667h-170.667v-85.333h85.333v-85.333zM0 640h85.333v-85.333h-85.333v85.333zM170.667 128h85.333v-85.333h-85.333v85.333zM682.667 384h85.333v85.333h-170.667v-85.333h85.333zM512 554.667h85.333v-85.333h-85.333v85.333zM426.667 640h-85.333v-170.667h-85.333v-85.333h170.667v170.667h85.333v85.333h-85.333zM597.333 42.667h85.333v-85.333h-85.333v85.333zM682.667 128h85.333v-85.333h-85.333v85.333zM938.667-128h85.333v85.333h-170.667v-85.333h85.333zM768 42.667h85.333v-85.333h-85.333v85.333zM938.667 213.333v-85.333h-85.333v-85.333h170.667v256h-85.333v-85.333zM768 725.333h-85.333v-170.667h170.667v85.333h-85.333v85.333zM170.667 810.667h170.667v85.333h-341.333v-170.667h170.667v85.333zM853.333 896v-256h85.333v85.333h85.333v170.667h-170.667z" />
<glyph unicode="&#xe82c;" glyph-name="radarcharts" d="M981.333 426.709h-352.768l251.605 145.28-42.667 73.899-251.605-145.237 77.995 135.040-73.899 42.667-77.995-135.083v305.493l-85.291 0.043v-305.579l-117.931 204.245-73.856-42.667 117.931-204.245-193.835 111.915-42.667-73.856 193.792-111.915h-310.144v-85.333h310.144l-258.603-149.333 42.667-73.813 258.603 149.248-111.403-192.896 73.899-42.667 111.36 192.939v-352.853l85.333 0.085v352.768l147.413-255.317 73.856 42.667-147.413 255.317 161.323-93.184 42.624 73.899-161.28 93.141h352.811v85.333zM469.333 298.752c-47.104 0-85.333 38.187-85.333 85.333 0 47.104 38.229 85.333 85.333 85.333s85.333-38.229 85.333-85.333c0-47.189-38.229-85.333-85.333-85.333z" />
<glyph unicode="&#xe82d;" glyph-name="radialgauge" d="M430.336 128h120.704l472.96 473.003v120.704l-593.664-593.707zM512 725.333c118.741 0 226.091-48.597 303.403-126.891l60.331 60.331c-92.715 93.781-221.44 151.893-363.733 151.893-282.752 0-512-229.248-512-512 0-130.517 49.237-249.259 129.664-339.669l60.331 60.331c-65.024 74.88-104.661 172.373-104.661 279.339 0 235.605 191.019 426.667 426.667 426.667zM922.24 413.909c10.325-36.693 16.427-75.264 16.427-115.243 0-106.965-39.68-204.459-104.661-279.339l60.331-60.331c80.427 90.411 129.664 209.152 129.664 339.669 0 64.512-12.331 126.037-34.176 182.827l-67.584-67.584z" />
<glyph unicode="&#xe82e;" glyph-name="scattercharts" d="M0 85.333v-85.333h938.667l85.333 85.333h-1024zM384 640c47.104 0 85.333-38.229 85.333-85.333s-38.229-85.333-85.333-85.333-85.333 38.229-85.333 85.333 38.229 85.333 85.333 85.333zM640 512c47.104 0 85.333-38.229 85.333-85.333s-38.229-85.333-85.333-85.333-85.333 38.229-85.333 85.333 38.229 85.333 85.333 85.333zM213.333 384c47.104 0 85.333-38.229 85.333-85.333s-38.229-85.333-85.333-85.333-85.333 38.229-85.333 85.333 38.229 85.333 85.333 85.333zM853.333 768c47.104 0 85.333-38.229 85.333-85.333s-38.229-85.333-85.333-85.333-85.333 38.229-85.333 85.333 38.229 85.333 85.333 85.333z" />
<glyph unicode="&#xe82f;" glyph-name="scheduler" d="M853.333 77.995l-120.661-120.661h-562.005v725.333h-85.333v-810.667h682.667l170.667 170.667v640h-85.333v-604.672zM640 896h85.333v-170.667h-85.333v170.667zM298.667 896h85.333v-170.667h-85.333v170.667zM0 853.333h256v-85.333h-256v85.333zM768 853.333v-85.333h170.667l85.333 85.333h-256zM426.667 853.333h170.667v-85.333h-170.667v85.333zM256 554.667v-85.333h42.667v-85.333h-42.667v-85.333h42.667v-85.333h-42.667v-85.333h42.667v-85.333l85.333 85.333h85.333v-85.333l85.333 85.333h85.333v-85.333l170.667 170.667h-85.333v85.333l85.333 85.333h-85.333v85.333l85.333 85.333h-85.333v42.667h-85.333v-42.667h-85.333v42.667h-85.333v-42.667h-85.333v42.667h-85.333v-42.667h-42.667zM384 213.333v85.333h85.333v-85.333h-85.333zM640 213.333h-85.333v85.333h85.333v-85.333zM640 469.333v-85.333h-85.333v85.333h85.333zM469.333 469.333v-85.333h-85.333v85.333h85.333z" />
<glyph unicode="&#xe830;" glyph-name="scroller" d="M42.667 896v-853.333h597.333l170.667 170.667v682.667h-768zM725.333 248.661l-120.661-120.661h-476.672v682.667h597.333v-562.005zM554.667 554.667h-341.333v85.333h426.667l-85.333-85.333zM213.333 384v85.333h256l-85.333-85.333h-170.667zM128-42.667h426.667l-85.333-85.333h-341.333v85.333zM981.333 725.333v-341.333l-85.333-85.333v426.667h85.333z" />
<glyph unicode="&#xe831;" glyph-name="scrollview" d="M85.333 768v-597.333h853.333v597.333h-853.333zM853.333 256h-682.667v426.667h682.667v-426.667zM682.667 512h-426.667v85.333h512l-85.333-85.333zM640 85.333h85.333v-85.333h-85.333v85.333zM256 341.333v85.333h341.333l-85.333-85.333h-256zM469.333 85.333h85.333v-85.333h-85.333v85.333zM298.667 85.333h85.333v-85.333h-85.333v85.333z" />
<glyph unicode="&#xe832;" glyph-name="singlepageapp" d="M768 640h-512v-85.333h426.667l85.333 85.333zM853.333 896h-768v-1024h682.667l170.667 170.667v853.333h-85.333zM853.333 77.995l-120.661-120.661h-562.005v853.333h682.667v-732.672zM768 469.333h-512v-85.333h426.667l85.333 85.333zM512 213.333l85.333 85.333h-341.333v-85.333h256z" />
<glyph unicode="&#xe833;" glyph-name="slider" d="M1024 768h-170.667v-85.333h85.333l85.333 85.333zM0 768h512v-85.333h-512v85.333zM512 0h426.667l85.333 85.333h-512v-85.333zM0 85.333h170.667v-85.333h-170.667v85.333zM682.667 341.333h256l85.333 85.333h-341.333v-85.333zM0 426.667h341.333v-85.333h-341.333v85.333zM597.333 810.667h170.667v-170.667h-170.667v170.667zM426.667 469.333h170.667v-170.667h-170.667v170.667zM256 128h170.667v-170.667h-170.667v170.667z" />
<glyph unicode="&#xe834;" glyph-name="sortable" d="M213.333 426.667h512l85.333 85.333h-597.333v-85.333zM213.333 682.667v-85.333h682.667l85.333 85.333h-768zM213.333 256h341.333l85.333 85.333h-426.667v-85.333zM213.333 85.333h170.667l85.333 85.333h-256v-85.333zM42.667 853.333h85.333v-938.667h-85.333v938.667z" />
<glyph unicode="&#xe835;" glyph-name="sparklines" d="M512 376.661l-170.667-170.667-341.333 341.333v-120.661l341.333-341.333 170.667 170.667 256-256 256 256v120.661l-256-256-256 256zM725.333 419.328l-213.333 213.333-238.336-238.336 60.331-60.331 178.005 178.005 213.333-213.333 298.667 298.667v120.661l-298.667-298.667zM0 120.661v-120.661l153.003 153.003-60.331 60.331-92.672-92.672z" />
<glyph unicode="&#xe836;" glyph-name="splitter" d="M469.333-128l85.333 85.333v938.667l-85.333-85.333v-938.667zM85.333 384l298.667-298.667v120.661l-178.005 178.005 178.005 178.005v120.661l-298.667-298.667zM878.336 444.331l-238.336 238.336v-120.661l178.005-178.005-178.005-178.005v-120.661l298.667 298.667-60.331 60.331z" />
<glyph unicode="&#xe837;" glyph-name="splitview" d="M42.667 85.333h213.333l-85.333-85.333h-128v85.333zM42.667 170.667h128l85.333 85.333h-213.333v-85.333zM42.667 341.333h128l85.333 85.333h-213.333v-85.333zM42.667 512h128l85.333 85.333h-213.333v-85.333zM42.667 682.667h128l85.333 85.333h-213.333v-85.333zM981.333 768v-768h-640v768h640zM896 85.333v597.333h-469.333v-597.333h469.333z" />
<glyph unicode="&#xe838;" glyph-name="stockchart" d="M0 42.667v-85.333h938.667l85.333 85.333h-1024zM512 512h170.667v-128h-170.667v128zM256 554.667h170.667v-85.333h-170.667v85.333zM0 512h170.667v-213.333h-170.667v213.333zM128 810.667l-85.333-85.333v-170.667h85.333v256zM384 768l-85.333-85.333v-85.333h85.333v170.667zM640 725.333l-85.333-85.333v-85.333h85.333v170.667zM42.667 256h85.333v-128h-85.333v128zM298.667 426.667h85.333v-170.667h-85.333v170.667zM768 426.667h170.667v-85.333h-170.667v85.333zM810.667 298.667h85.333v-85.333h-85.333v85.333zM896 682.667l-85.333-85.333v-128h85.333v213.333zM554.667 341.333h85.333v-170.667h-85.333v170.667z" />
<glyph unicode="&#xe839;" glyph-name="switch" d="M0 640v-512h1024v512h-1024zM938.667 213.333h-853.333v341.333h853.333v-341.333zM512 298.667h-341.333v170.667h341.333v-170.667z" />
<glyph unicode="&#xe83a;" glyph-name="tabstrip" d="M426.667 725.333v170.667h-341.333v-1024h682.667l170.667 170.667v682.667h-512zM853.333 77.995l-120.661-120.661h-562.005v853.333h170.667v-170.667h512v-562.005zM256 384h426.667l85.333 85.333h-512v-85.333zM768 896h170.667v-85.333h-170.667v85.333zM256 213.333h256l85.333 85.333h-341.333v-85.333zM512 896h170.667v-85.333h-170.667v85.333z" />
<glyph unicode="&#xe83b;" glyph-name="tabstrip-mobile" d="M85.333 896v-1024h341.333v170.667h512v853.333h-853.333zM853.333 128h-512v-170.667h-170.667v853.333h682.667v-682.667zM682.667 554.667h-426.667v85.333h512l-85.333-85.333zM768-42.667h170.667v-85.333h-170.667v85.333zM256 384v85.333h341.333l-85.333-85.333h-256zM512-42.667h170.667v-85.333h-170.667v85.333z" />
<glyph unicode="&#xe83c;" glyph-name="templates" d="M853.333 896h-768v-1024h682.667l170.667 170.667v853.333h-85.333zM853.333 77.995l-120.661-120.661h-562.005v853.333h682.667v-732.672zM768 725.333h-512v-85.333h426.667l85.333 85.333zM597.333 554.667h-341.333v-85.333h256l85.333 85.333zM768 298.667h-512v-85.333h426.667l85.333 85.333zM512 42.667l85.333 85.333h-341.333v-85.333h256z" />
<glyph unicode="&#xe83d;" glyph-name="timepicker" d="M512 383.957v213.376l-85.333 85.333v-384h384l-85.333 85.291h-213.333zM512 896c-282.752 0-512-229.248-512-512s229.248-512 512-512 512 229.248 512 512-229.248 512-512 512zM512-42.667c-235.648 0-426.667 191.104-426.667 426.667 0 235.605 191.019 426.667 426.667 426.667s426.667-191.061 426.667-426.667c0-235.563-191.019-426.667-426.667-426.667z" />
<glyph unicode="&#xe83e;" glyph-name="tooltip" d="M768 597.333h-512v-85.333h426.667l85.333 85.333zM597.333 426.667h-341.333v-85.333h256l85.333 85.333zM85.333 853.333v-768h213.333l213.333-213.333 213.333 213.333h213.333v768h-853.333zM853.333 170.667h-163.328l-178.005-178.005-177.963 178.005h-163.371v597.333h682.667v-597.333z" />
<glyph unicode="&#xe83f;" glyph-name="treeview" d="M981.333 810.667h-682.667v-85.333h597.333l85.333 85.333zM554.667 469.333h341.333l85.333 85.333h-426.667v-85.333zM810.667 213.333h85.333l85.333 85.333h-170.667v-85.333zM554.667-42.667h341.333l85.333 85.333h-426.667v-85.333zM42.667 853.333h170.667v-170.667h-170.667v170.667zM298.667 597.333h170.667v-170.667h-170.667v170.667zM554.667 341.333h170.667v-170.667h-170.667v170.667zM298.667 85.333h170.667v-170.667h-170.667v170.667z" />
<glyph unicode="&#xe840;" glyph-name="upload" d="M597.333 896c-117.803 0-213.333-95.488-213.333-213.333v-512c0-70.699 57.301-128 128-128 70.656 0 128 57.301 128 128v512l-85.333-85.333v-426.667c0-23.595-19.115-42.667-42.667-42.667s-42.667 19.072-42.667 42.667v512c0 70.699 57.301 128 128 128 70.656 0 128-57.301 128-128v-512c0-117.845-95.488-213.333-213.333-213.333-117.803 0-213.333 95.488-213.333 213.333v512l-85.333-85.333v-426.667c0-164.949 133.717-298.667 298.667-298.667s298.667 133.717 298.667 298.667v512c0 117.845-95.488 213.333-213.333 213.333z" />
<glyph unicode="&#xe841;" glyph-name="validator" d="M469.333 298.667l85.333 85.333v256h-85.333v-341.333zM469.333 213.333h85.333v-85.333h-85.333v85.333zM512 896c-282.752 0-512-229.248-512-512s229.248-512 512-512 512 229.248 512 512-229.248 512-512 512zM512-42.667c-235.648 0-426.667 191.104-426.667 426.667 0 235.605 191.019 426.667 426.667 426.667s426.667-191.061 426.667-426.667c0-235.563-191.019-426.667-426.667-426.667z" />
<glyph unicode="&#xe842;" glyph-name="window" d="M170.667 725.333h-85.333v-853.333h682.667l170.667 170.624v682.709h-768zM853.333 77.995l-120.661-120.661h-562.005v682.667h682.667v-562.005zM768 469.333h-512v-85.333h426.667l85.333 85.333zM853.333 896h85.333v-85.333h-85.333v85.333zM682.667 896h85.333v-85.333h-85.333v85.333zM85.333 896h512v-85.333h-512v85.333zM512 213.333l85.333 85.333h-341.333v-85.333h256z" />
<glyph unicode="&#xe843;" glyph-name="gantt" d="M938.667 896h-938.667v-1024h853.333l170.667 170.667v853.333h-85.333zM938.667 77.995l-120.661-120.661h-732.672v853.333h853.333v-732.672zM853.333 213.333l-170.667-170.667-85.333 85.333h-170.667v85.333h426.667zM597.333 725.333l-170.667-170.667-85.333 85.333h-170.667v85.333h426.667zM725.333 469.333l-170.667-170.667-85.333 85.333h-170.667v85.333h426.667z" />
<glyph unicode="&#xe844;" glyph-name="pivotgrid" d="M768 0l85.333-85.333h-768l469.333 469.333-469.333 469.333h768l-85.333-85.333h-476.672l384-384-383.957-384h476.629z" />
<glyph unicode="&#xe845;" glyph-name="treemap" d="M42.667 896v-1024h938.667v1024h-938.667zM128-42.667v426.667h341.333v-426.667h-341.333zM554.667-42.667v170.667h128v-170.667h-128zM768-42.667v170.667h128v-170.667h-128zM896 213.333h-341.333v170.667h341.333v-170.667zM896 469.333h-768v341.333h768v-341.333z" />
<glyph unicode="&#xe846;" glyph-name="rangebarcharts" d="M0 42.667h1024l-85.333-85.333h-938.667v85.333zM512 384h170.667v298.667h-170.667v-298.667zM256 256h170.667v298.667h-170.667v-298.667zM768 640h170.667v170.667h-170.667v-170.667zM0 128h170.667v170.667h-170.667v-170.667z" />
<glyph unicode="&#xe847;" glyph-name="waterfallcharts" d="M0 42.667h1024l-85.333-85.333h-938.667v85.333zM512 298.667h170.667v298.667h-170.667v-298.667zM768 298.667h170.667v170.667h-170.667v-170.667zM256 597.333h170.667v213.333h-170.667v-213.333zM0 128h170.667v682.667h-170.667v-682.667z" />
<glyph unicode="&#xe848;" glyph-name="combobox" d="M938.667 725.333v-682.667l-170.667-170.667h-682.667v853.333h85.333v-768h562.005l120.661 120.661v647.339h85.333zM256 554.667h426.667l85.333 85.333h-512v-85.333zM768 810.667h170.667l85.333 85.333h-256v-85.333zM0 810.667h682.667v85.333h-682.667v-85.333zM256 384h426.667l85.333 85.333h-512v-85.333zM256 213.333h256l85.333 85.333h-341.333v-85.333z" />
<glyph unicode="&#xe849;" glyph-name="responsivepanel" d="M810.667 640h-768v170.667h938.667l-170.667-170.667zM981.333 128h-938.667v-170.667h768l170.667 170.667zM981.333 469.333h-938.667v-170.667h768l170.667 170.667z" />
<glyph unicode="&#xe84a;" glyph-name="collapsible" d="M256 682.667h597.333l-85.333-85.333h-512v85.333zM256 426.667h512l85.333 85.333h-597.333v-85.333zM256 256h512l85.333 85.333h-597.333v-85.333zM256 85.333h256l85.333 85.333h-341.333v-85.333zM256 810.667h682.667l85.333 85.333h-768v-85.333zM0-128h938.667l85.333 85.333h-1024v-85.333zM0 810.667h170.667v85.333h-170.667v-85.333z" />
<glyph unicode="&#xe84b;" glyph-name="spreadsheet" d="M853.333 554.667h-85.333v85.333l85.333 85.333h-682.667v-682.667l85.333 85.333h170.667v-85.333l85.333 85.333h170.667v-85.333l170.667 170.667h-85.333v85.333l85.333 85.333h-85.333v85.333l85.333 85.333zM682.667 640v-85.333h-170.667v85.333h170.667zM256 640h170.667v-85.333h-170.667v85.333zM256 469.333h170.667v-85.333h-170.667v85.333zM256 213.333v85.333h170.667v-85.333h-170.667zM682.667 213.333h-170.667v85.333h170.667v-85.333zM682.667 384h-170.667v85.333h170.667v-85.333zM0 896v-1024h853.333l170.667 170.667v853.333h-1024zM938.667 77.995l-120.661-120.661h-732.672v853.333h853.333v-732.672z" />
<glyph unicode="&#xe84c;" glyph-name="wordprocessing" d="M507.733 640h89.6l-106.667-512h-106.667l-64 298.667-64-298.667h-106.667l-106.667 512h89.6l72.533-354.133 72.533 349.867v4.267h85.333v-4.267l72.533-349.867 72.533 354.133zM1024 554.667h-384v-85.333h298.667l85.333 85.333zM640 298.667h298.667l85.333 85.333h-384v-85.333zM640 128h298.667l85.333 85.333h-384v-85.333z" />
<glyph unicode="&#xe84d;" glyph-name="spreadprocessing" d="M981.333 384h-85.333v85.333l85.333 85.333h-85.333v85.333h-85.333v-85.333h-85.333v85.333h-85.333v-85.333h-85.333v-85.333h85.333v-85.333h-85.333v-85.333h85.333v-85.333h-85.333v-85.333h85.333v-85.333l85.333 85.333h85.333v-85.333l170.667 170.667h-85.333v85.333l85.333 85.333zM725.333 469.333h85.333v-85.333h-85.333v85.333zM810.667 213.333h-85.333v85.333h85.333v-85.333zM469.333 640l-166.4-256 166.4-256h-93.867l-119.467 183.467-119.467-183.467h-93.867l166.4 256-166.4 256h98.133l115.2-183.467 119.467 183.467h93.867z" />
<glyph unicode="&#xe84e;" glyph-name="pdf" d="M85.333-42.667h768v-85.333h-853.333v853.333l170.667 170.667h682.667v-341.333h-85.333v256h-563.2l-119.467-119.467v-733.867zM170.667 469.333h170.667l85.333-85.333v-128l-85.333-85.333h-85.333v-128h-85.333v426.667zM256 256h85.333v128h-85.333v-128zM469.333 469.333h170.667l85.333-85.333v-256l-85.333-85.333h-170.667v426.667zM554.667 128h85.333v256h-85.333v-256zM853.333 384h85.333l85.333 85.333h-256v-426.667h85.333v170.667h42.667l85.333 85.333h-128v85.333z" />
<glyph unicode="&#xe84f;" glyph-name="datetimepicker" d="M554.667 554.667h-128v128h128v-128zM725.333 682.667h-128v-128h128v128zM384 512h-128v-128h128v128zM554.667 512h-128v-128h128v128zM725.333 512h-128v-128h128v128zM384 341.333h-128v-128h128v128zM384 170.667h-128v-128h128v128zM896 725.333h-85.333v-341.333h85.333v341.333zM170.667-42.667v768h-85.333v-853.333h298.667v85.333h-213.333zM0 810.667h938.667l85.333 85.333h-1024v-85.333zM896 106.667c0-128-106.667-234.667-234.667-234.667s-234.667 106.667-234.667 234.667 106.667 234.667 234.667 234.667c128 0 234.667-106.667 234.667-234.667zM810.667 106.667c0 81.067-68.267 149.333-149.333 149.333s-149.333-68.267-149.333-149.333 68.267-149.333 149.333-149.333 149.333 68.267 149.333 149.333zM682.667 128v42.667h-42.667v-85.333h85.333v42.667h-42.667z" />
<glyph unicode="&#xe850;" glyph-name="styling" d="M938.667 682.667v-119.467l-426.667-435.2-256 256h119.467l136.533-136.533 426.667 435.2zM938.667 810.667v85.333h-853.333v-1024h682.667l170.667 170.667v384l-85.333-85.333v-264.533l-119.467-119.467h-563.2v853.333h682.667v-85.333l85.333 85.333z" />
<glyph unicode="&#xe851;" glyph-name="touchevents" d="M256 554.667l-60.373-60.331 110.379-110.336-110.379-110.336 60.373-60.331 170.667 170.667-170.667 170.667zM828.331 494.336l-60.331 60.331-170.667-170.667 170.667-170.667 60.331 60.331-110.336 110.336 110.336 110.336zM341.333 128l60.331-60.373 110.336 110.379 110.336-110.379 60.331 60.373-170.667 170.667-170.667-170.667zM682.667 640l-60.331 60.331-110.336-110.336-110.336 110.336-60.331-60.331 170.667-170.667 170.667 170.667z" />
<glyph unicode="&#xe852;" glyph-name="toolbar" d="M170.667 725.333h170.667v-85.333h-170.667v85.333zM426.667 640h170.667v85.333h-170.667v-85.333zM682.667 640h170.667v85.333h-170.667v-85.333zM1024 896v-853.333l-170.667-170.667h-853.333v1024h1024zM85.333 554.667h853.333v256h-853.333v-256zM938.667 76.8v392.533h-853.333v-512h733.867l119.467 119.467z" />
<glyph unicode="&#xe853;" glyph-name="treelist" d="M682.667 426.667h170.667l-85.333-85.333h-85.333v85.333zM682.667 85.333h85.333l85.333 85.333h-170.667v-85.333zM426.667 597.333h341.333l85.333 85.333h-426.667v-85.333zM341.333 725.333h-170.667v-170.667h170.667v170.667zM597.333 469.333h-170.667v-170.667h170.667v170.667zM597.333 213.333h-170.667v-170.667h170.667v170.667zM1024 896v-853.333l-170.667-170.667h-853.333v1024h1024zM938.667 810.667h-853.333v-853.333h733.867l119.467 119.467v733.867z" />
<glyph unicode="&#xe854;" glyph-name="forms" d="M42.667 554.667h938.667l-85.333-85.333h-853.333v85.333zM42.667 640h853.333l85.333 85.333h-938.667v-85.333zM42.667 810.667h853.333l85.333 85.333h-938.667v-85.333zM42.667-128h426.667v170.667h-426.667v-170.667zM42.667 298.667h853.333l85.333 85.333h-938.667v-85.333zM554.667-128h426.667v170.667h-426.667v-170.667zM42.667 128h853.333l85.333 85.333h-938.667v-85.333z" />
<glyph unicode="&#xe855;" glyph-name="view" d="M512 682.667h256l-85.333-85.333h-170.667v85.333zM938.667 896v-853.333l-170.667-170.667h-682.667v1024h853.333zM853.333 810.667h-682.667v-853.333h563.2l119.467 119.467v733.867zM256 554.667h170.667v170.667h-170.667v-170.667zM256 384h426.667l85.333 85.333h-512v-85.333zM256 213.333h426.667l85.333 85.333h-512v-85.333zM256 42.667h256l85.333 85.333h-341.333v-85.333z" />
<glyph unicode="&#xe856;" glyph-name="listview-mobile" d="M981.333 810.667h-682.667v-85.333h597.333l85.333 85.333zM298.667 469.333h597.333l85.333 85.333h-682.667v-85.333zM298.667 213.333h597.333l85.333 85.333h-682.667v-85.333zM298.667-42.667h597.333l85.333 85.333h-682.667v-85.333zM42.667 853.333h170.667v-170.667h-170.667v170.667zM42.667 597.333h170.667v-170.667h-170.667v170.667zM42.667 341.333h170.667v-170.667h-170.667v170.667zM42.667 85.333h170.667v-170.667h-170.667v170.667z" />
<glyph unicode="&#xe857;" glyph-name="dialog" d="M85.333 725.333v-853.333h682.667l170.667 170.667v682.667h-853.333zM853.333 76.8l-119.467-119.467h-563.2v682.667h682.667v-563.2zM256 384h341.333l-85.333-85.333h-256v85.333zM853.333 896h85.333v-85.333h-85.333v85.333zM85.333 896h682.667v-85.333h-682.667v85.333zM256 128h213.333l-85.333-85.333h-128v85.333zM554.667 128h213.333l-85.333-85.333h-128v85.333zM256 554.667h512l-85.333-85.333h-426.667v85.333z" />
<glyph unicode="&#xe858;" glyph-name="mediaplayer" d="M85.333 725.333v-853.333h682.667l170.667 170.667v682.667h-853.333zM853.333 76.8l-119.467-119.467h-563.2v682.667h682.667v-563.2zM426.667 512l213.333-213.333-213.333-213.333zM298.667 810.667h-213.333v85.333h298.667zM512 810.667h-128l85.333 85.333h128zM725.333 810.667h-128l85.333 85.333h128zM938.667 810.667h-128l85.333 85.333h42.667z" />
<glyph unicode="&#xe859;" glyph-name="localization" d="M213.333 682.667h512l-85.333-85.333h-426.667v85.333zM213.333 426.667h256l85.333 85.333h-341.333v-85.333zM0 213.333v682.667h1024v-682.667h-554.667l-298.667-298.667v298.667h-170.667zM85.333 298.667h170.667v-170.667l170.667 170.667h512v512h-853.333v-512z" />
<glyph unicode="&#xe85a;" glyph-name="accessibility" d="M128 512l85.333-85.333h170.667v-512h85.333v298.667h85.333v-298.667h85.333v512h170.667l85.333 85.333h-768zM512 853.333c-72.533 0-128-55.467-128-128s55.467-128 128-128 128 55.467 128 128-55.467 128-128 128z" />
<glyph unicode="&#xe85b;" glyph-name="listbox" d="M256 597.333h-85.333v85.333h85.333v-85.333zM1024 896v-853.333l-170.667-170.667h-853.333v1024h1024zM938.667 810.667h-853.333v-853.333h733.867l119.467 119.467v733.867zM853.333 682.667h-512v-85.333h426.667l85.333 85.333zM256 512h-85.333v-85.333h85.333v85.333zM853.333 512h-512v-85.333h426.667l85.333 85.333zM256 341.333h-85.333v-85.333h85.333v85.333zM725.333 341.333h-384v-85.333h298.667l85.333 85.333z" />
<glyph unicode="&#xe85c;" glyph-name="dateinput" d="M0 682.667v-597.333h1024v597.333h-1024zM938.667 170.667h-853.333v426.667h853.333v-426.667zM230.4 256l-59.733 59.733 196.267 196.267 59.733-59.733-196.267-196.267zM529.067 256l-59.733 59.733 196.267 196.267 59.733-59.733-196.267-196.267z" />
<glyph unicode="&#xe900;" glyph-name="ziplibrary" d="M0 896v-1024h853.333l170.667 170.667v853.333h-1024zM938.667 76.8l-119.467-119.467h-733.867v853.333h128v-85.333h85.333v85.333h640v-733.867zM298.667 640v85.333h85.333v-85.333h-85.333zM213.333 640h85.333v-85.333h-85.333v85.333zM298.667 469.333v85.333h85.333v-85.333h-85.333zM213.333 469.333h85.333v-85.333h-85.333v85.333zM298.667 298.667v85.333h85.333v-85.333h-85.333zM213.333 213.333h170.667v-170.667h-170.667v170.667z" />
<glyph unicode="&#xe901;" glyph-name="spreadstreamprocessing" d="M388.267 384l166.4-256h-93.867l-119.467 183.467-119.467-183.467h-93.867l166.4 256-166.4 256h98.133l115.2-183.467 119.467 183.467h93.867l-166.4-256zM682.667 469.333v128l-213.333-213.333 213.333-213.333v128h213.333v170.667h-213.333z" />
<glyph unicode="&#xe902;" glyph-name="rangeareacharts" d="M0 42.667h1024l-85.333-85.333h-938.667v85.333zM1024 896v-443.733l-281.6-281.6-204.8 204.8-281.6-281.6-256 256v362.667l226.133-226.133 285.867 281.6 192-192 320 320zM938.667 686.933l-234.667-234.667-21.333 25.6-170.667 170.667-285.867-285.867-140.8 140.8v-119.467l170.667-170.667 281.6 281.6 204.8-204.8 196.267 196.267v200.533z" />
<glyph unicode="&#xe903;" glyph-name="dropdownbutton" d="M0 682.667v-597.333h1024v597.333h-1024zM938.667 170.667h-853.333v426.667h853.333v-426.667zM512 341.333h-298.667v85.333h384l-85.333-85.333zM810.667 341.333h-85.333v85.333h85.333v-85.333z" />
<glyph unicode="&#xe904;" glyph-name="splitbutton" d="M0 682.667v-597.333h1024v597.333h-1024zM85.333 170.667v426.667h554.667v-426.667h-554.667zM938.667 170.667h-213.333v426.667h213.333v-426.667zM512 426.667l-85.333-85.333h-213.333v85.333h298.667z" />
<glyph unicode="&#xe905;" glyph-name="textbox" d="M0 682.667v-597.333h1024v597.333h-1024zM938.667 170.667h-853.333v426.667h853.333v-426.667zM512 256h-341.333v85.333h426.667l-85.333-85.333z" />
<glyph unicode="&#xe906;" glyph-name="ripple" d="M597.333 384c0-46.933-38.4-85.333-85.333-85.333s-85.333 38.4-85.333 85.333 38.4 85.333 85.333 85.333 85.333-38.4 85.333-85.333zM512 682.667c-166.4 0-298.667-132.267-298.667-298.667s132.267-298.667 298.667-298.667v85.333c-119.467 0-213.333 93.867-213.333 213.333s93.867 213.333 213.333 213.333c119.467 0 213.333-93.867 213.333-213.333h85.333c0 166.4-132.267 298.667-298.667 298.667zM1024 384c0-281.6-230.4-512-512-512s-512 230.4-512 512 230.4 512 512 512 512-230.4 512-512zM938.667 384c0 234.667-192 426.667-426.667 426.667s-426.667-192-426.667-426.667c0-234.667 192-426.667 426.667-426.667s426.667 192 426.667 426.667z" />
<glyph unicode="&#xe907;" glyph-name="chat" d="M691.2 85.333h-315.733l-204.8-213.333h-85.333v213.333h-85.333v597.333h170.667v-85.333h-85.333v-426.667h85.333v-179.2l170.667 179.2h268.8l81.067-85.333zM1024 896v-640h-85.333v-213.333h-85.333l-204.8 213.333h-392.533v640h768zM938.667 810.667h-597.333v-469.333h341.333l170.667-179.2v179.2h85.333v469.333zM768 640h-341.333v85.333h426.667l-85.333-85.333zM426.667 469.333v85.333h256l-85.333-85.333h-170.667z" />
<glyph unicode="&#xe908;" glyph-name="dropdowntree" d="M853.333 725.333h85.333v-682.667l-170.667-170.667h-682.667v853.333h85.333v-768h563.2l119.467 119.467v648.533zM0 896v-85.333h938.667l85.333 85.333h-1024zM426.667 640v-42.667h298.667l42.667 42.667h-341.333zM554.667 469.333v-42.667h170.667l42.667 42.667h-213.333zM682.667 298.667v-42.667h42.667l42.667 42.667h-85.333zM768 128h-213.333v-42.667h170.667l42.667 42.667zM256 554.667h128v128h-128v-128zM384 384h128v128h-128v-128zM640 341.333h-128v-128h128v128zM384 42.667h128v128h-128v-128z" />
<glyph unicode="&#xe909;" glyph-name="daterangepicker" d="M554.667 682.667v-128h-128v128h128zM725.333 682.667h-128v-128h128v128zM256 512v-128h128v128h-128zM256 42.667h128v128h-128v-128zM554.667 42.667v128h-128v-128h128zM810.667 76.8l-119.467-119.467h-520.533v768h-85.333v-853.333h640l170.667 170.667v682.667h-85.333v-648.533zM0 896v-85.333h938.667l85.333 85.333h-1024zM426.667 384h298.667v42.667h-256v42.667h256v42.667h-298.667v-128zM256 256v-42.667h298.667v128h-298.667v-42.667h256v-42.667h-256zM725.333 213.333v128h-128v-128h128z" />
<glyph unicode="&#xe90a;" glyph-name="multiviewcalendar" d="M691.2 0h-648.533v682.667h85.333v-597.333h524.8l72.533 72.533v524.8h85.333v-563.2l-119.467-119.467zM298.667 597.333l-85.333-85.333v-341.333h85.333v426.667zM384 512h170.667v-85.333h-85.333l-85.333-85.333v-85.333l85.333-85.333h85.333l85.333 85.333h-170.667v85.333h85.333l85.333 85.333v85.333l-85.333 85.333h-85.333l-85.333-85.333zM640 896h-85.333v-170.667h85.333v170.667zM298.667 896h-85.333v-170.667h85.333v170.667zM170.667 853.333h-170.667v-85.333h170.667v85.333zM682.667 853.333v-85.333h256l85.333 85.333h-341.333zM512 853.333h-170.667v-85.333h170.667v85.333zM853.333 85.333l-128-128h-640v-85.333h674.133l179.2 179.2v631.467h-85.333v-597.333z" />
<glyph unicode="&#xe90b;" glyph-name="multicolumncombobox" d="M853.333 682.667h85.333v-640l-170.667-170.667h-682.667v810.667h85.333v-725.333h563.2l119.467 119.467v605.867zM725.333 597.333v-42.667h85.333l-85.333-85.333v-85.333h85.333l-85.333-85.333v-85.333h85.333l-170.667-170.667v85.333h-85.333l-85.333-85.333v85.333h-85.333l-85.333-85.333v85.333h-42.667v85.333h42.667v85.333h-42.667v85.333h42.667v85.333h-42.667v85.333h42.667v42.667h85.333v-42.667h85.333v42.667h85.333v-42.667h85.333v42.667h85.333zM469.333 298.667h-85.333v-85.333h85.333v85.333zM469.333 469.333h-85.333v-85.333h85.333v85.333zM640 298.667h-85.333v-85.333h85.333v85.333zM640 469.333h-85.333v-85.333h85.333v85.333zM768 853.333v-85.333h170.667l85.333 85.333h-256zM682.667 853.333h-682.667v-85.333h682.667v85.333z" />
<glyph unicode="&#xe90c;" glyph-name="arcgauge" d="M597.333 426.667l-85.333-85.333v-170.667l85.333-85.333h85.333l85.333 85.333v170.667l-85.333 85.333h-85.333zM682.667 170.667h-85.333v170.667h85.333v-170.667zM256 426.667h213.333v-85.333l-85.333-256h-85.333l76.8 256h-119.467v85.333zM913.067 486.4l-59.733-59.733c-76.8 102.4-200.533 170.667-341.333 170.667-234.667 0-426.667-192-426.667-426.667 0-21.333 0-42.667 4.267-64l-81.067-21.333c-4.267 25.6-8.533 55.467-8.533 85.333 0 281.6 230.4 512 512 512 162.133 0 307.2-76.8 401.067-196.267zM1024 170.667c0-29.867-4.267-59.733-8.533-85.333l-81.067 21.333c4.267 21.333 4.267 42.667 4.267 64 0 64-12.8 123.733-38.4 179.2l64 64c38.4-72.533 59.733-153.6 59.733-243.2z" />
</font>
</defs>
</svg>
