<?xml version="1.0" encoding="utf-8"?>
<!-- Generator: Adobe Illustrator 14.0.0, SVG Export Plug-In . SVG Version: 6.00 Build 43363)  -->
<!DOCTYPE svg PUBLIC "-//W3C//DTD SVG 1.1//EN" "http://www.w3.org/Graphics/SVG/1.1/DTD/svg11.dtd">
<svg version="1.1" id="Layer_1" xmlns="http://www.w3.org/2000/svg" xmlns:xlink="http://www.w3.org/1999/xlink" x="0px" y="0px"
	 width="24px" height="24px" viewBox="0 0 24 24" enable-background="new 0 0 24 24" xml:space="preserve">
<path fill="#00b5dc" d="M2,4v16h12v4h8V4H2z M20,22h-4v-4H4V6h16V22z M2,22h4v2H2V22z M16,11H6V9h12L16,11z M6,15v-2h8l-2,2H6z
	 M8,22h4v2H8V22z M22,0v2h-4V0H22z M16,2H8V0h8V2z M6,2H2V0h4V2z"/>
</svg>
