<?xml version="1.0" encoding="utf-8"?>
<!-- Generator: Adobe Illustrator 22.1.0, SVG Export Plug-In . SVG Version: 6.00 Build 0)  -->
<svg version="1.1" id="Layer_1" xmlns="http://www.w3.org/2000/svg" xmlns:xlink="http://www.w3.org/1999/xlink" x="0px" y="0px"
	 viewBox="0 0 24 24" style="enable-background:new 0 0 24 24;" xml:space="preserve">
<style type="text/css">
	.st0{fill:#808080;}
</style>
<path class="st0" d="M14,11l-2,2v4l2,2h2l2-2v-4l-2-2H14z M16,17h-2v-4h2V17z M6,11h5l0,2l-2,6l-2,0l1.8-6H6V11z M21.4,9.6L20,11
	c-1.8-2.4-4.7-4-8-4C6.5,7,2,11.5,2,17c0,0.5,0,1,0.1,1.5L0.2,19C0.1,18.4,0,17.7,0,17C0,10.4,5.4,5,12,5C15.8,5,19.2,6.8,21.4,9.6z
	 M24,17c0,0.7-0.1,1.4-0.2,2l-1.9-0.5C22,18,22,17.5,22,17c0-1.5-0.3-2.9-0.9-4.2l1.5-1.5C23.5,13,24,14.9,24,17z"/>
</svg>
