<?xml version="1.0" encoding="utf-8"?>
<!-- Generator: Adobe Illustrator 14.0.0, SVG Export Plug-In . SVG Version: 6.00 Build 43363)  -->
<!DOCTYPE svg PUBLIC "-//W3C//DTD SVG 1.1//EN" "http://www.w3.org/Graphics/SVG/1.1/DTD/svg11.dtd">
<svg version="1.1" id="Layer_1" xmlns="http://www.w3.org/2000/svg" xmlns:xlink="http://www.w3.org/1999/xlink" x="0px" y="0px"
	 width="24px" height="24px" viewBox="0 0 24 24" enable-background="new 0 0 24 24" xml:space="preserve">
<rect x="226" y="-1850" fill="#00b5dc" width="2" height="18"/>
<rect x="244" y="-1851" fill="#00b5dc" width="2" height="15"/>
<rect x="226" y="-1834" fill="#00b5dc" width="16" height="2"/>
<rect x="242.278" y="-1837.524" transform="matrix(-0.707 -0.7072 0.7072 -0.707 1712.822 -2959.7437)" fill="#00b5dc" width="2" height="5.657"/>
<polygon fill="#00b5dc" points="230,-1849 242,-1849 240,-1847 230,-1847 "/>
<polygon fill="#00b5dc" points="230,-1845 242,-1845 240,-1843 230,-1843 "/>
<polygon fill="#00b5dc" points="230,-1841 238,-1841 236,-1839 230,-1839 "/>
<polygon fill="#00b5dc" points="246,-1853 238,-1853 238,-1855 248,-1855 "/>
<rect x="224" y="-1856" fill="#818181" width="12" height="4"/>
<path fill="#00b5dc" d="M20,19.172L17.172,22H4V6H2v16v2h2h14l4-4V5h-2V19.172z M6,7v2h10l2-2H6z M18,11H6v2h10L18,11z M6,17h6l2-2
	H6V17z M14,1v2h8l2-2H14z M0,0h12v4H0V0z"/>
</svg>
