<?xml version="1.0" encoding="utf-8"?>
<!-- Generator: Adobe Illustrator 14.0.0, SVG Export Plug-In . SVG Version: 6.00 Build 43363)  -->
<!DOCTYPE svg PUBLIC "-//W3C//DTD SVG 1.1//EN" "http://www.w3.org/Graphics/SVG/1.1/DTD/svg11.dtd">
<svg version="1.1" id="Layer_1" xmlns="http://www.w3.org/2000/svg" xmlns:xlink="http://www.w3.org/1999/xlink" x="0px" y="0px"
	 width="24px" height="24px" viewBox="0 0 24 24" enable-background="new 0 0 24 24" xml:space="preserve">
<path fill="#00b5dc" d="M0,20v2h22l2-2H0z M12,9h4v3h-4V9z M6,8h4v2H6V8z M0,9h4v5H0V9z M3,2L1,4v4h2V2z M9,3L7,5v2h2V3z M15,4l-2,2
	v2h2V4z M1,15h2v3H1V15z M7,11h2v4H7V11z M18,11h4v2h-4V11z M19,14h2v2h-2V14z M21,5l-2,2v3h2V5z M13,13h2v4h-2V13z"/>
</svg>
