<?xml version="1.0" encoding="utf-8"?>
<!-- Generator: Adobe Illustrator 14.0.0, SVG Export Plug-In . SVG Version: 6.00 Build 43363)  -->
<!DOCTYPE svg PUBLIC "-//W3C//DTD SVG 1.1//EN" "http://www.w3.org/Graphics/SVG/1.1/DTD/svg11.dtd">
<svg version="1.1" id="Layer_1" xmlns="http://www.w3.org/2000/svg" xmlns:xlink="http://www.w3.org/1999/xlink" x="0px" y="0px"
	 width="24px" height="24px" viewBox="0 0 24 24" enable-background="new 0 0 24 24" xml:space="preserve">
<path fill="#00b5dc" d="M0,19v2h22l2-2H0z M4.5,12C5.329,12,6,12.672,6,13.5S5.329,15,4.5,15S3,14.328,3,13.5S3.671,12,4.5,12z
	 M20,4c1.104,0,2,0.896,2,2s-0.896,2-2,2s-2-0.896-2-2S18.896,4,20,4z M15,17c2.208,0,4-1.791,4-4s-1.792-4-4-4s-4,1.791-4,4
	S12.792,17,15,17z M15,10.667c1.29,0,2.333,1.044,2.333,2.333S16.29,15.334,15,15.334S12.667,14.289,12.667,13
	S13.71,10.667,15,10.667z M8,11c1.656,0,3-1.343,3-3S9.656,5,8,5S5,6.343,5,8S6.344,11,8,11z M8,7c0.553,0,1,0.448,1,1S8.553,9,8,9
	S7,8.552,7,8S7.447,7,8,7z"/>
</svg>
