<?xml version="1.0" encoding="utf-8"?>
<!-- Generator: Adobe Illustrator 22.0.1, SVG Export Plug-In . SVG Version: 6.00 Build 0)  -->
<svg version="1.1" id="Layer_1" xmlns="http://www.w3.org/2000/svg" xmlns:xlink="http://www.w3.org/1999/xlink" x="0px" y="0px"
	 viewBox="0 0 24 24" style="enable-background:new 0 0 24 24;" xml:space="preserve">
<style type="text/css">
	.st0{fill:#00b5dc;}
</style>
<path class="st0" d="M16.2,19H8.8L4,24H2v-5H0V5h4v2H2v10h2l0,4.2L8,17h6.3L16.2,19z M24,0v15h-2l0,5h-2l-4.8-5L6,15V0H24z M22,2H8
	v11h8l4,4.2V13h2V2z M18,6h-8V4h10L18,6z M10,10V8h6l-2,2H10z"/>
</svg>
