<?xml version="1.0" encoding="utf-8"?>
<!-- Generator: Adobe Illustrator 20.0.0, SVG Export Plug-In . SVG Version: 6.00 Build 0)  -->
<svg version="1.1" id="Layer_1" xmlns="http://www.w3.org/2000/svg" xmlns:xlink="http://www.w3.org/1999/xlink" x="0px" y="0px"
	 viewBox="0 0 24 24" style="enable-background:new 0 0 24 24;" xml:space="preserve">
<style type="text/css">
	.st0{fill:#00b5dc;}
</style>
<path class="st0" d="M0,0v24h20l4-4V0H0z M22,19.2L19.2,22H2V2h20V19.2z M16,13.5L16,13.5c0,1.2-0.4,2.1-1,2.7s-1.6,0.9-2.8,0.9
	c-1.2,0-2.2-0.4-3-1.1S8,14.2,8,13V11C8,9.8,8.4,8.8,9.1,8c0.7-0.8,1.7-1.1,2.9-1.1c1.3,0,2.2,0.3,2.9,1s1,1.5,1.1,2.7l0,0h-2.2
	c0-0.6-0.2-1.1-0.4-1.4S12.6,8.7,12,8.7c-0.5,0-0.9,0.2-1.2,0.6c-0.3,0.4-0.5,1-0.5,1.7V13c0,0.7,0.2,1.2,0.5,1.7s0.8,0.6,1.4,0.6
	c0.6,0,1-0.1,1.2-0.4s0.4-0.8,0.4-1.4H16z"/>
</svg>
