<?xml version="1.0" encoding="utf-8"?>
<!-- Generator: Adobe Illustrator 14.0.0, SVG Export Plug-In . SVG Version: 6.00 Build 43363)  -->
<!DOCTYPE svg PUBLIC "-//W3C//DTD SVG 1.1//EN" "http://www.w3.org/Graphics/SVG/1.1/DTD/svg11.dtd">
<svg version="1.1" id="Layer_1" xmlns="http://www.w3.org/2000/svg" xmlns:xlink="http://www.w3.org/1999/xlink" x="0px" y="0px"
	 width="24px" height="24px" viewBox="0 0 24 24" enable-background="new 0 0 24 24" xml:space="preserve">
<path fill="#00b5dc" d="M12,10c1.104,0,2,0.896,2,2s-0.896,2-2,2s-2-0.896-2-2S10.896,10,12,10z M24,13l-2-2h-3.171l1.585-1.586
	L19,8l-4,4l4,4l1.414-1.414L18.829,13H24z M5,8L3.585,9.414L5.171,11H0l2,2h3.171l-1.586,1.586L5,16l4-4L5,8z M16,5l-1.414-1.414
	L13,5.171V0l-2,2v3.171L9.414,3.586L8,5l4,4L16,5z M8,19l1.414,1.415L11,18.829V24l2-2v-3.171l1.586,1.586L16,19l-4-4L8,19z"/>
</svg>
