<?xml version="1.0" encoding="utf-8"?>
<!-- Generator: Adobe Illustrator 20.0.0, SVG Export Plug-In . SVG Version: 6.00 Build 0)  -->
<svg version="1.1" id="Layer_1" xmlns="http://www.w3.org/2000/svg" xmlns:xlink="http://www.w3.org/1999/xlink" x="0px" y="0px"
	 viewBox="0 0 24 24" style="enable-background:new 0 0 24 24;" xml:space="preserve">
<style type="text/css">
	.st0{fill:#00b5dc;}
</style>
<path class="st0" d="M13,8h-3V5h3V8z M17,5h-3v3h3V5z M9,9H6v3h3V9z M13,9h-3v3h3V9z M17,9h-3v3h3V9z M9,13H6v3h3V13z M9,17H6v3h3
	V17z M21,4h-2v8h2V4z M4,22V4H2v20h7v-2H4z M0,2h22l2-2H0V2z M21,18.5c0,3-2.5,5.5-5.5,5.5c-3,0-5.5-2.5-5.5-5.5s2.5-5.5,5.5-5.5
	C18.5,13,21,15.5,21,18.5z M19,18.5c0-1.9-1.6-3.5-3.5-3.5S12,16.6,12,18.5s1.6,3.5,3.5,3.5S19,20.4,19,18.5z M16,18v-1h-1v2h2v-1
	H16z"/>
</svg>
