<?xml version="1.0" encoding="utf-8"?>
<!-- Generator: Adobe Illustrator 14.0.0, SVG Export Plug-In . SVG Version: 6.00 Build 43363)  -->
<!DOCTYPE svg PUBLIC "-//W3C//DTD SVG 1.1//EN" "http://www.w3.org/Graphics/SVG/1.1/DTD/svg11.dtd">
<svg version="1.1" id="Layer_1" xmlns="http://www.w3.org/2000/svg" xmlns:xlink="http://www.w3.org/1999/xlink" x="0px" y="0px"
	 width="24px" height="24px" viewBox="0 0 24 24" enable-background="new 0 0 24 24" xml:space="preserve">
<path fill="#00b5dc" d="M4.857,8.728l3.871-3.87l1.414,1.415l-3.871,3.87L4.857,8.728z M12,1c1.104,0,2,0.896,2,2s-0.896,2-2,2
	s-2-0.896-2-2S10.896,1,12,1z M3,10c1.104,0,2,0.896,2,2s-0.896,2-2,2s-2-0.896-2-2S1.896,10,3,10z M13.857,6.272l1.414-1.414
	l3.871,3.871l-1.414,1.414L13.857,6.272z M21,10c1.104,0,2,0.896,2,2s-0.896,2-2,2s-2-0.896-2-2S19.896,10,21,10z M12,19
	c1.104,0,2,0.896,2,2s-0.896,2-2,2s-2-0.896-2-2S10.896,19,12,19z M11,7h2v10h-2V7z"/>
</svg>
