<?xml version="1.0" encoding="utf-8"?>
<!-- Generator: Adobe Illustrator 20.0.0, SVG Export Plug-In . SVG Version: 6.00 Build 0)  -->
<svg version="1.1" id="Layer_1" xmlns="http://www.w3.org/2000/svg" xmlns:xlink="http://www.w3.org/1999/xlink" x="0px" y="0px"
	 viewBox="0 0 24 24" style="enable-background:new 0 0 24 24;" xml:space="preserve">
<style type="text/css">
	.st0{fill:#00b5dc;}
</style>
<path class="st0" d="M0,0v24h20l4-4V0H0z M22,19.2L19.2,22H2V2h20V19.2z M8.1,17V7h3.6c1.2,0,2.2,0.4,2.9,1.1
	c0.8,0.8,1.2,1.7,1.2,2.9v1.8c0,1.2-0.4,2.2-1.2,2.9S12.9,17,11.7,17H8.1z M10.5,8.8v6.4h1.1c0.6,0,1.1-0.2,1.4-0.6
	c0.3-0.4,0.5-1,0.5-1.7v-1.8c0-0.7-0.2-1.2-0.5-1.7s-0.8-0.6-1.4-0.6H10.5z"/>
</svg>
