<?xml version="1.0" encoding="utf-8"?>
<!-- Generator: Adobe Illustrator 22.0.1, SVG Export Plug-In . SVG Version: 6.00 Build 0)  -->
<svg version="1.1" id="Layer_1" xmlns="http://www.w3.org/2000/svg" xmlns:xlink="http://www.w3.org/1999/xlink" x="0px" y="0px"
	 viewBox="0 0 24 24" style="enable-background:new 0 0 24 24;" xml:space="preserve">
<style type="text/css">
	.st0{fill:#808080;}
</style>
<path class="st0" d="M20,4h2v16h0l-4,4H2V4h2v18h13.2l2.8-2.8V4z M0,0v2h22l2-2H0z M10,6v1h7l1-1H10z M13,10v1h4l1-1H13z M16,14v1h1
	l1-1H16z M18,18h-5v1h4L18,18z M6,8h3V5H6V8z M9,12h3V9H9V12z M15,13h-3v3h3V13z M9,20h3v-3H9V20z"/>
</svg>
