<?xml version="1.0" encoding="utf-8"?>
<!-- Generator: Adobe Illustrator 14.0.0, SVG Export Plug-In . SVG Version: 6.00 Build 43363)  -->
<!DOCTYPE svg PUBLIC "-//W3C//DTD SVG 1.1//EN" "http://www.w3.org/Graphics/SVG/1.1/DTD/svg11.dtd">
<svg version="1.1" id="Layer_1" xmlns="http://www.w3.org/2000/svg" xmlns:xlink="http://www.w3.org/1999/xlink" x="0px" y="0px"
	 width="24px" height="24px" viewBox="0 0 24 24" enable-background="new 0 0 24 24" xml:space="preserve">
<path fill="#818181" d="M12,0C5.373,0,0,5.373,0,12s5.373,12,12,12c6.627,0,12-5.373,12-12S18.627,0,12,0z M13,8.918
	c1.29-0.063,2.518-0.245,3.659-0.527c0.159,0.824,0.271,1.696,0.315,2.609H13V8.918z M13,6.92V2.201
	c1.32,0.536,2.45,2.114,3.17,4.285C15.188,6.712,14.124,6.864,13,6.92z M11,2.201v4.72C9.876,6.864,8.813,6.713,7.831,6.485
	C8.55,4.315,9.68,2.737,11,2.201z M11,8.918V11H7.025c0.045-0.913,0.156-1.785,0.315-2.608C8.482,8.673,9.71,8.855,11,8.918z
	 M5.029,11H2.05c0.15-1.513,0.646-2.919,1.395-4.158c0.606,0.361,1.276,0.684,2.004,0.961C5.229,8.813,5.083,9.883,5.029,11z
	 M5.029,13c0.054,1.117,0.199,2.187,0.419,3.195c-0.728,0.278-1.398,0.601-2.004,0.962C2.696,15.919,2.201,14.512,2.05,13H5.029z
	 M7.025,13H11v2.082c-1.29,0.062-2.518,0.244-3.659,0.526C7.181,14.784,7.07,13.912,7.025,13z M11,17.079v4.72
	c-1.32-0.536-2.45-2.114-3.169-4.285C8.813,17.287,9.876,17.136,11,17.079z M13,21.799V17.08c1.124,0.056,2.188,0.207,3.17,0.434
	C15.45,19.685,14.32,21.264,13,21.799z M13,15.081V13h3.975c-0.045,0.912-0.156,1.785-0.315,2.608
	C15.518,15.326,14.29,15.144,13,15.081z M18.971,13h2.979c-0.15,1.513-0.646,2.921-1.395,4.159
	c-0.606-0.361-1.276-0.685-2.004-0.963C18.771,15.188,18.917,14.117,18.971,13z M18.971,11c-0.054-1.117-0.199-2.188-0.42-3.197
	c0.728-0.278,1.397-0.601,2.004-0.962c0.748,1.238,1.244,2.646,1.395,4.159H18.971z M19.41,5.302
	c-0.417,0.23-0.886,0.436-1.381,0.624c-0.349-1.016-0.781-1.934-1.283-2.729C17.753,3.741,18.648,4.459,19.41,5.302z M7.254,3.197
	C6.752,3.992,6.32,4.909,5.971,5.925c-0.495-0.189-0.96-0.396-1.377-0.627C5.355,4.458,6.249,3.74,7.254,3.197z M4.593,18.702
	c0.417-0.231,0.882-0.438,1.377-0.628c0.349,1.016,0.782,1.934,1.284,2.729C6.249,20.26,5.354,19.542,4.593,18.702z M16.746,20.803
	c0.502-0.795,0.935-1.713,1.283-2.729c0.496,0.188,0.965,0.394,1.381,0.624C18.648,19.54,17.753,20.259,16.746,20.803z"/>
</svg>
