<?xml version="1.0" encoding="utf-8"?>
<!-- Generator: Adobe Illustrator 14.0.0, SVG Export Plug-In . SVG Version: 6.00 Build 43363)  -->
<!DOCTYPE svg PUBLIC "-//W3C//DTD SVG 1.1//EN" "http://www.w3.org/Graphics/SVG/1.1/DTD/svg11.dtd">
<svg version="1.1" id="Layer_1" xmlns="http://www.w3.org/2000/svg" xmlns:xlink="http://www.w3.org/1999/xlink" x="0px" y="0px"
	 width="24px" height="24px" viewBox="0 0 24 24" enable-background="new 0 0 24 24" xml:space="preserve">
<path fill="#00b5dc" d="M6,20l2-2h3v2l2-2h3v2l2-2l2-2h-2v-3l2-2h-2V8l2-2h-2V4h-2v2h-3V4h-2v2H8V4H6v2H4v2h2v3H4v2h2v3H4v2h2V20z
	 M16,16h-3v-3h3V16z M16,8v3h-3V8H16z M8,8h3v3H8V8z M8,13h3v3H8V13z M0,0v2v20v1v1h20l4-4V2V0H0z M22,19.172L19.172,22H2V2h20
	V19.172z"/>
</svg>
