<?xml version="1.0" encoding="utf-8"?>
<!-- Generator: Adobe Illustrator 14.0.0, SVG Export Plug-In . SVG Version: 6.00 Build 43363)  -->
<!DOCTYPE svg PUBLIC "-//W3C//DTD SVG 1.1//EN" "http://www.w3.org/Graphics/SVG/1.1/DTD/svg11.dtd">
<svg version="1.1" id="Layer_1" xmlns="http://www.w3.org/2000/svg" xmlns:xlink="http://www.w3.org/1999/xlink" x="0px" y="0px"
	 width="24px" height="24px" viewBox="0 0 24 24" enable-background="new 0 0 24 24" xml:space="preserve">
<path fill="#818181" d="M15,13h-2v2v6v2h2h4l4-4v-4v-2h-2H15z M21,18.172L18.172,21H15v-6h6V18.172z M3,13H1v2v6v2h2h4l4-4v-4v-2H9
	H3z M9,18.172L6.172,21H3v-6h6V18.172z M21,1h-6h-2v2v6v2h2h4l4-4V3V1H21z M21,6.172L18.172,9H15V3h6V6.172z M3,1H1v2v6v2h2h4l4-4V3
	V1H9H3z M9,6.172L6.172,9H3V3h6V6.172z"/>
</svg>
