<?xml version="1.0" encoding="utf-8"?>
<!-- Generator: Adobe Illustrator 20.0.0, SVG Export Plug-In . SVG Version: 6.00 Build 0)  -->
<svg version="1.1" id="Layer_1" xmlns="http://www.w3.org/2000/svg" xmlns:xlink="http://www.w3.org/1999/xlink" x="0px" y="0px"
	 viewBox="0 0 283.5 29.6" style="enable-background:new 0 0 283.5 29.6;" xml:space="preserve">
<style type="text/css">
	.st0{fill:#4C4F53;}
	.st1{fill:#7C888F;}
</style>
<g>
	<g>
		<g>
			<path class="st0" d="M4.6,10.6l7.8-9.2h5.4L8.9,11.7l9.2,11.2h-5.5l-8.1-9.7v9.7H0V1.4h4.5v9.2H4.6z"/>
			<path class="st0" d="M21.3,16.1c0.4,2.6,2.2,3.6,4.5,3.6c1.7,0,2.9-0.4,4.5-1.4v3.6c-1.3,0.9-3,1.4-5.1,1.4c-4.8,0-8-3.1-8-8.1
				c0-4.9,3.1-8.3,7.4-8.3c4.6,0,6.9,3.2,6.9,7.8v1.4H21.3z M21.5,13.2h5.9c-0.1-1.7-1.1-2.9-2.8-2.9C23.2,10.3,22,11.3,21.5,13.2z"
				/>
			<path class="st0" d="M33.3,7.2h4.3v1.4c0.8-1,2.4-1.8,4.2-1.8c3.5,0.1,5.5,2.4,5.5,5.9v10.2H43v-9.3c0-1.6-0.8-2.8-2.6-2.8
				c-1.3,0-2.5,0.8-2.8,2.2v9.9h-4.3V7.2z"/>
			<path class="st0" d="M60,21.6c-0.7,0.8-2.2,1.6-3.9,1.6c-4.6,0-7.1-3.7-7.1-8.2s2.6-8.2,7.1-8.2c1.7,0,3.2,0.8,3.9,1.6V0h4.4
				v22.8H60C60,22.8,60,21.6,60,21.6z M60,12.5c-0.5-1.1-1.7-1.8-2.9-1.8c-2.3,0-3.7,1.9-3.7,4.4s1.4,4.4,3.7,4.4
				c1.3,0,2.5-0.7,2.9-1.8V12.5z"/>
			<path class="st0" d="M73.8,23.2c-4.6,0-7.7-3.4-7.7-8.2s3.1-8.2,7.7-8.2s7.7,3.4,7.7,8.2C81.5,19.9,78.4,23.2,73.8,23.2z
				 M73.8,10.6c-2.2,0-3.4,1.9-3.4,4.5s1.2,4.5,3.4,4.5c2.2,0,3.4-1.9,3.4-4.5C77.2,12.4,76,10.6,73.8,10.6z"/>
			<path class="st0" d="M90.4,14.2V1.4h4.5v12.4c0,3.7,1.6,5.4,4.4,5.4s4.4-1.8,4.4-5.4V1.4h4.5v12.8c0,5.9-3.5,9-8.9,9
				S90.4,20.2,90.4,14.2z"/>
			<path class="st0" d="M115.8,22.9h-4.5V1.4h4.5V22.9z"/>
		</g>
		<path class="st0" d="M119.4,5.5c-1.2,0-2.1-0.9-2.1-2.1s1-2.1,2.1-2.1s2.1,0.9,2.1,2.1C121.6,4.6,120.6,5.5,119.4,5.5 M119.4,1.6
			c-1,0-1.7,0.7-1.7,1.8c0,1,0.8,1.8,1.7,1.8c1,0,1.7-0.7,1.7-1.8C121.2,2.3,120.4,1.6,119.4,1.6 M119.2,3.8v0.7h-0.6V2.2h1
			c0.5,0,0.8,0.3,0.8,0.8c0,0.3-0.2,0.6-0.4,0.7l0.5,0.8h-0.7l-0.4-0.7C119.4,3.8,119.2,3.8,119.2,3.8z M119.5,2.7h-0.3v0.5h0.3
			c0.2,0,0.3-0.1,0.3-0.2C119.8,2.9,119.7,2.7,119.5,2.7"/>
	</g>
</g>
<g>
	<path class="st1" d="M135,2.1c-0.5-0.2-1-0.4-1.6-0.4c-1.6,0-2.8,1.2-2.8,3.4v2.6h3.6v1.5h-3.6v14h-1.7v-14h-2.6V7.7h2.5V4.9
		c0-2.8,1.9-4.7,4.4-4.7c0.7,0,1.2,0.1,1.8,0.3V2.1z"/>
	<path class="st1" d="M141.5,23.6c-4.1,0-6.9-3.3-6.9-8.1s2.8-8.1,6.9-8.1c4.1,0,6.9,3.3,6.9,8.1S145.6,23.6,141.5,23.6z M141.5,9
		c-3.1,0-5.1,2.6-5.1,6.6s2,6.6,5.1,6.6s5.1-2.6,5.1-6.6S144.6,9,141.5,9z"/>
	<path class="st1" d="M158.6,9.3c-0.4-0.2-0.9-0.3-1.4-0.3c-1.9,0-3.4,1.4-4.1,3.4v10.9h-1.8V7.7h1.8v2.5c0.7-1.5,2.3-2.8,4.2-2.8
		c0.6,0,1,0.1,1.4,0.2L158.6,9.3L158.6,9.3z"/>
	<path class="st1" d="M176.8,1.8l8.5,21.5h-1.8l-2.8-7.1h-9.5l-2.8,7.1h-1.8l8.5-21.5C175.1,1.8,176.8,1.8,176.8,1.8z M171.8,14.6
		h8.3L176,4.1L171.8,14.6z"/>
	<path class="st1" d="M187.5,7.7h1.8v2.5c0.9-1.5,2.8-2.8,5-2.8c3.5,0,5.4,2.3,5.4,5.6v10.3H198V13.2c0-2.4-1.2-4.2-4-4.2
		c-2.1,0-3.9,1.5-4.7,3.4v10.9h-1.8V7.7z"/>
	<path class="st1" d="M213.8,20.7c-0.9,1.3-2.7,2.6-4.8,2.6c-4.5,0-6.7-3.7-6.7-7.9s2.2-7.9,6.7-7.9c2.1,0,3.9,1.3,4.8,2.6V7.7h1.7
		v14.5c0,5.2-3.4,7.4-7.1,7.4c-2,0-3.7-0.6-4.9-1.5v-2c1.5,1.4,3.2,1.9,4.9,1.9c3,0,5.4-1.8,5.4-5.7L213.8,20.7L213.8,20.7z
		 M213.8,12c-1-1.9-2.8-3-4.6-3c-3.2,0-5.1,2.6-5.1,6.3s1.9,6.3,5.1,6.3c1.9,0,3.6-1.1,4.6-3V12z"/>
	<path class="st1" d="M231.3,23.3h-1.7v-2.5c-0.9,1.5-2.7,2.8-4.9,2.8c-3.5,0-5.4-2.3-5.4-5.6V7.7h1.7v10.1c0,2.4,1.2,4.2,4,4.2
		c2.1,0,3.9-1.5,4.6-3.4V7.7h1.7L231.3,23.3L231.3,23.3z"/>
	<path class="st1" d="M236.8,23.3H235V0.5h1.8V23.3z"/>
	<path class="st1" d="M249.4,12.5c0-2.1-1.5-3.5-3.9-3.5c-1.8,0-3.3,0.5-4.5,1.4V8.7c1.1-0.7,2.8-1.3,4.7-1.3c3.3,0,5.4,1.9,5.4,5
		v10.9h-1.7v-1.5c-0.7,0.8-2.4,1.7-4.3,1.7c-3.2,0-5.7-1.8-5.7-4.8c0-2.9,2.6-4.8,5.8-4.8c1.9,0,3.5,0.9,4.2,1.6V12.5z M249.4,17.8
		c-0.5-1.3-2.2-2.3-4.1-2.3c-2.2,0-4.2,1.1-4.2,3.3s2,3.3,4.2,3.3c1.9,0,3.6-1,4.1-2.3V17.8z"/>
	<path class="st1" d="M262,9.3c-0.4-0.2-0.9-0.3-1.4-0.3c-1.9,0-3.4,1.4-4.1,3.4v10.9h-1.8V7.7h1.8v2.5c0.7-1.5,2.3-2.8,4.2-2.8
		c0.6,0,1,0.1,1.4,0.2v1.7H262z"/>
	<path class="st1" d="M283.5,21.6v1.6H270v-0.1l6.9-8.2c2.3-2.7,4.2-4.7,4.2-7.6c0-2.5-1.5-4.2-4.6-4.2c-2.5,0-4.6,1.4-6.1,3V4.2
		c1.4-1.5,3.6-2.7,6.2-2.7c3.9,0,6.2,2.3,6.2,5.9c0,3.3-2.1,5.6-4.7,8.6l-5,5.7h10.4V21.6z"/>
</g>
</svg>
