<?xml version="1.0" encoding="utf-8"?>
<!-- Generator: Adobe Illustrator 14.0.0, SVG Export Plug-In . SVG Version: 6.00 Build 43363)  -->
<!DOCTYPE svg PUBLIC "-//W3C//DTD SVG 1.1//EN" "http://www.w3.org/Graphics/SVG/1.1/DTD/svg11.dtd">
<svg version="1.1" id="Layer_1" xmlns="http://www.w3.org/2000/svg" xmlns:xlink="http://www.w3.org/1999/xlink" x="0px" y="0px"
	 width="24px" height="24px" viewBox="0 0 24 24" enable-background="new 0 0 24 24" xml:space="preserve">
<path fill="#818181" d="M12,0C7.029,0,3,4.029,3,9c0,7,9,15,9,15s9-8,9-15C21,4.029,16.971,0,12,0z M12,21.292C12,21.292,5,15,5,9
	c0-3.866,3.134-7,7-7s7,3.134,7,7C19,15,12,21.292,12,21.292z M12,4C9.238,4,7,6.238,7,9s2.238,5,5,5c2.762,0,5-2.238,5-5
	S14.762,4,12,4z M12,12c-1.656,0-3-1.343-3-3s1.344-3,3-3s3,1.343,3,3S13.656,12,12,12z"/>
</svg>
