<?xml version="1.0" encoding="utf-8"?>
<!-- Generator: Adobe Illustrator 14.0.0, SVG Export Plug-In . SVG Version: 6.00 Build 43363)  -->
<!DOCTYPE svg PUBLIC "-//W3C//DTD SVG 1.1//EN" "http://www.w3.org/Graphics/SVG/1.1/DTD/svg11.dtd">
<svg version="1.1" id="Layer_1" xmlns="http://www.w3.org/2000/svg" xmlns:xlink="http://www.w3.org/1999/xlink" x="0px" y="0px"
	 width="24px" height="24px" viewBox="0 0 24 24" enable-background="new 0 0 24 24" xml:space="preserve">
<path fill="#818181" d="M0,5v14h24V5H0z M22,17H2V7h20V17z M4,13.585L5.416,15L7,13.415L8.585,15h0.001L10,13.585L8.415,12
	L10,10.415L8.586,9.001L7,10.586L5.414,9L4,10.414L5.586,12L4,13.585z M11,13.585L12.415,15L14,13.415L15.585,15h0.001L17,13.585
	L15.414,12L17,10.415l-1.414-1.414L14,10.586L12.414,9L11,10.414L12.585,12L11,13.585z"/>
</svg>
