<?xml version="1.0" encoding="utf-8"?>
<!-- Generator: Adobe Illustrator 22.1.0, SVG Export Plug-In . SVG Version: 6.00 Build 0)  -->
<svg version="1.1" id="Layer_1" xmlns="http://www.w3.org/2000/svg" xmlns:xlink="http://www.w3.org/1999/xlink" x="0px" y="0px"
	 viewBox="0 0 24 24" style="enable-background:new 0 0 24 24;" xml:space="preserve">
<style type="text/css">
	.st0{fill:#808080;}
</style>
<path class="st0" d="M16.2,21H1V5h2v14h12.3l1.7-1.7V5h2v13.2L16.2,21z M7,7L5,9v8h2V7z M9,9h4v2h-2l-2,2v2l2,2h2l2-2h-4v-2h2l2-2V9
	l-2-2h-2L9,9z M15,0h-2v4h2V0z M7,0H5v4h2V0z M4,1H0v2h4V1z M16,1v2h6l2-2H16z M12,1H8v2h4V1z M20,19l-3,3H2v2h15.8l2-2l2.2-2.2V5
	h-2V19z"/>
</svg>
