<?xml version="1.0" encoding="utf-8"?>
<!-- Generator: Adobe Illustrator 22.1.0, SVG Export Plug-In . SVG Version: 6.00 Build 0)  -->
<svg version="1.1" id="Layer_1" xmlns="http://www.w3.org/2000/svg" xmlns:xlink="http://www.w3.org/1999/xlink" x="0px" y="0px"
	 viewBox="0 0 24 24" style="enable-background:new 0 0 24 24;" xml:space="preserve">
<style type="text/css">
	.st0{fill:#808080;}
</style>
<path class="st0" d="M20,5h2v15l-4,4H2V5h2v17h13.2l2.8-2.8V5z M17,7v1h2l-2,2v2h2l-2,2v2h2l-4,4v-2h-2l-2,2v-2H9l-2,2v-2H6v-2h1v-2
	H6v-2h1v-2H6V8h1V7h2v1h2V7h2v1h2V7H17z M11,14H9v2h2V14z M11,10H9v2h2V10z M15,14h-2v2h2V14z M15,10h-2v2h2V10z M18,1v2h4l2-2H18z
	 M16,1H0v2h16V1z"/>
</svg>
