<?xml version="1.0" encoding="utf-8"?>
<!-- Generator: Adobe Illustrator 14.0.0, SVG Export Plug-In . SVG Version: 6.00 Build 43363)  -->
<!DOCTYPE svg PUBLIC "-//W3C//DTD SVG 1.1//EN" "http://www.w3.org/Graphics/SVG/1.1/DTD/svg11.dtd">
<svg version="1.1" id="Layer_1" xmlns="http://www.w3.org/2000/svg" xmlns:xlink="http://www.w3.org/1999/xlink" x="0px" y="0px"
	 width="24px" height="24px" viewBox="0 0 24 24" enable-background="new 0 0 24 24" xml:space="preserve">
<path fill="#818181" d="M14.523,18.523L12,16l-1.415,1.414l1.579,1.578C12.109,18.993,12.055,19,12,19c-3.866,0-7-3.135-7-7
	c0-2.489,1.304-4.669,3.261-5.91L7.586,5.414L6.82,4.647C4.512,6.277,3,8.96,3,12c0,4.971,4.029,9,9,9
	c0.062,0,0.121-0.01,0.182-0.011l-1.597,1.597L12,24l2.586-2.586l1.311-1.311L16,20l-1.414-1.414L14.523,18.523z M12.788,3.04
	l1.626-1.626L13,0l-2.586,2.586L9.689,3.311L9,4l1.414,1.414L13,8l1.414-1.414l-1.523-1.523C16.335,5.502,19,8.438,19,12
	c0,2.23-1.049,4.215-2.676,5.497l1.09,1.089l0.336,0.336C19.734,17.271,21,14.784,21,12C21,7.295,17.389,3.44,12.788,3.04z"/>
</svg>
