<?xml version="1.0" encoding="utf-8"?>
<!-- Generator: Adobe Illustrator 19.2.1, SVG Export Plug-In . SVG Version: 6.00 Build 0)  -->
<svg version="1.1" id="Layer_1" xmlns="http://www.w3.org/2000/svg" xmlns:xlink="http://www.w3.org/1999/xlink" x="0px" y="0px"
	 viewBox="0 0 24 24" style="enable-background:new 0 0 24 24;" xml:space="preserve">
<style type="text/css">
	.st0{fill:#818181;}
</style>
<path class="st0" d="M2,22h18v2H0V4l4-4h16v8h-2V2H4.8L2,4.8V22z M4,10h4l2,2v3l-2,2H6v3H4V10z M6,15h2v-3H6V15z M11,10h4l2,2v6
	l-2,2h-4V10z M13,18h2v-6h-2V18z M20,12h2l2-2h-6v10h2v-4h1l2-2h-3V12z"/>
</svg>
