<?xml version="1.0" encoding="utf-8"?>
<!-- Generator: Adobe Illustrator 14.0.0, SVG Export Plug-In . SVG Version: 6.00 Build 43363)  -->
<!DOCTYPE svg PUBLIC "-//W3C//DTD SVG 1.1//EN" "http://www.w3.org/Graphics/SVG/1.1/DTD/svg11.dtd">
<svg version="1.1" id="Layer_1" xmlns="http://www.w3.org/2000/svg" xmlns:xlink="http://www.w3.org/1999/xlink" x="0px" y="0px"
	 width="24px" height="24px" viewBox="0 0 24 24" enable-background="new 0 0 24 24" xml:space="preserve">
<path fill="#818181" d="M0,20h4v4H0V20z M2,16v-2H0v2v2h2V16z M12,20v-2h-2H8v2v2h2v-2H12z M14,16h2h2h2v-2h-2h-2h-2h-2v2v2h2V16z
	 M16,22h2v2h-2V22z M10,22v2h2h2v-2h-2H10z M16,0h2v2h-2V0z M6,22h2v2H6V22z M22,10v2h2v-2V8h-2V10z M2,10h2v2H2V10z M8,16h2v-2H8H6
	v2H8z M4,12h2v2H4V12z M4,6h2v2H4V6z M8,2h2v2H8V2z M12,4h2V2V0h-2h-2v2h2V4z M0,6h2v2H0V6z M4,18h2v2H4V18z M16,12h2v-2h-2h-2v2H16
	z M12,8h2v2h-2V8z M10,6H8v2v2H6v2h2h2v-2V8h2V6H10z M14,20h2v2h-2V20z M16,18h2v2h-2V18z M22,24h2v-2h-2h-2v2H22z M18,20h2v2h-2V20
	z M22,16v2h-2v2h2h2v-2v-2v-2h-2V16z M18,4h-2v2v2h2h2V6h-2V4z M4,2h2h2V0H6H4H0v4h4V2z M20,0v4v2h2V4h2V0H20z"/>
</svg>
