<?xml version="1.0" encoding="utf-8"?>
<!-- Generator: Adobe Illustrator 14.0.0, SVG Export Plug-In . SVG Version: 6.00 Build 43363)  -->
<!DOCTYPE svg PUBLIC "-//W3C//DTD SVG 1.1//EN" "http://www.w3.org/Graphics/SVG/1.1/DTD/svg11.dtd">
<svg version="1.1" id="Layer_1" xmlns="http://www.w3.org/2000/svg" xmlns:xlink="http://www.w3.org/1999/xlink" x="0px" y="0px"
	 width="24px" height="24px" viewBox="0 0 24 24" enable-background="new 0 0 24 24" xml:space="preserve">
<path fill="#818181" d="M23,10.999h-8.268l5.897-3.405l-1-1.732l-5.897,3.404l1.828-3.165l-1.732-1L12,8.267v-7.16l-1.999-0.001
	v7.162L7.237,3.481l-1.731,1L8.27,9.268L3.727,6.645l-1,1.731l4.542,2.623H0v2h7.269l-6.061,3.5l1,1.73l6.061-3.498l-2.611,4.521
	l1.732,1L10,15.73V24l2-0.002V15.73l3.455,5.984l1.731-1l-3.455-5.984l3.781,2.184l0.999-1.732l-3.78-2.183H23V10.999z M11,13.998
	c-1.104,0-2-0.895-2-2c0-1.104,0.896-2,2-2s2,0.896,2,2C13,13.104,12.104,13.998,11,13.998z"/>
</svg>
