<?xml version="1.0" encoding="utf-8"?>
<!-- Generator: Adobe Illustrator 22.1.0, SVG Export Plug-In . SVG Version: 6.00 Build 0)  -->
<svg version="1.1" id="Layer_1" xmlns="http://www.w3.org/2000/svg" xmlns:xlink="http://www.w3.org/1999/xlink" x="0px" y="0px"
	 viewBox="0 0 24 24" style="enable-background:new 0 0 24 24;" xml:space="preserve">
<style type="text/css">
	.st0{fill:#818181;}
</style>
<path class="st0" d="M10.1,18h2.8L24,6.9V4.1L10.1,18z M12,4c2.8,0,5.3,1.1,7.1,3l1.4-1.4C18.4,3.4,15.3,2,12,2C5.4,2,0,7.4,0,14
	c0,3.1,1.2,5.8,3,8l1.4-1.4C2.9,18.8,2,16.5,2,14C2,8.5,6.5,4,12,4z M21.6,11.3c0.2,0.9,0.4,1.8,0.4,2.7c0,2.5-0.9,4.8-2.5,6.5
	L21,22c1.9-2.1,3-4.9,3-8c0-1.5-0.3-3-0.8-4.3L21.6,11.3z"/>
</svg>
