<?xml version="1.0" encoding="utf-8"?>
<!-- Generator: Adobe Illustrator 21.1.0, SVG Export Plug-In . SVG Version: 6.00 Build 0)  -->
<svg version="1.1" id="Layer_1" xmlns="http://www.w3.org/2000/svg" xmlns:xlink="http://www.w3.org/1999/xlink" x="0px" y="0px"
	 viewBox="0 0 24 24" style="enable-background:new 0 0 24 24;" xml:space="preserve">
<style type="text/css">
	.st0{fill:#808080;}
</style>
<path class="st0" d="M0,20h24l-2,2H0V20z M24,0v10.4L17.4,17l-4.8-4.8L6,18.8l-6-6V4.3l5.3,5.3L12,3l4.5,4.5L24,0z M22,4.9l-5.5,5.5
	L16,9.8l0,0l0,0l0,0l-0.9-0.9L12,5.8l-5.3,5.3l-1.4,1.4L2,9.2v0.7V12l4,4l1.4-1.4l1.4-1.4l2.4-2.4l0.6-0.6l0.8-0.8l0,0l4.8,4.8
	l1.4-1.4l0,0L22,9.6V6.7V4.9z"/>
</svg>
