<?xml version="1.0" encoding="utf-8"?>
<!-- Generator: Adobe Illustrator 21.1.0, SVG Export Plug-In . SVG Version: 6.00 Build 0)  -->
<svg version="1.1" id="Layer_1" xmlns="http://www.w3.org/2000/svg" xmlns:xlink="http://www.w3.org/1999/xlink" x="0px" y="0px"
	 viewBox="0 0 24 24" style="enable-background:new 0 0 24 24;" xml:space="preserve">
<style type="text/css">
	.st0{fill:#808080;}
</style>
<path class="st0" d="M14,12c0,1.1-0.9,2-2,2s-2-0.9-2-2s0.9-2,2-2S14,10.9,14,12z M12,5c-3.9,0-7,3.1-7,7s3.1,7,7,7v-2
	c-2.8,0-5-2.2-5-5s2.2-5,5-5c2.8,0,5,2.2,5,5h2C19,8.1,15.9,5,12,5z M24,12c0,6.6-5.4,12-12,12S0,18.6,0,12S5.4,0,12,0S24,5.4,24,12
	z M22,12c0-5.5-4.5-10-10-10S2,6.5,2,12c0,5.5,4.5,10,10,10S22,17.5,22,12z"/>
</svg>
