<?xml version="1.0" encoding="utf-8"?>
<!-- Generator: Adobe Illustrator 14.0.0, SVG Export Plug-In . SVG Version: 6.00 Build 43363)  -->
<!DOCTYPE svg PUBLIC "-//W3C//DTD SVG 1.1//EN" "http://www.w3.org/Graphics/SVG/1.1/DTD/svg11.dtd">
<svg version="1.1" id="Layer_1" xmlns="http://www.w3.org/2000/svg" xmlns:xlink="http://www.w3.org/1999/xlink" x="0px" y="0px"
	 width="24px" height="24px" viewBox="0 0 24 24" enable-background="new 0 0 24 24" xml:space="preserve">
<path fill="#818181" d="M0,19v2h22l2-2H0z M9,6c1.104,0,2,0.896,2,2s-0.896,2-2,2S7,9.104,7,8S7.896,6,9,6z M15,9
	c1.104,0,2,0.896,2,2s-0.896,2-2,2s-2-0.896-2-2S13.896,9,15,9z M5,12c1.104,0,2,0.896,2,2s-0.896,2-2,2s-2-0.896-2-2S3.896,12,5,12
	z M20,3c1.104,0,2,0.896,2,2s-0.896,2-2,2s-2-0.896-2-2S18.896,3,20,3z"/>
</svg>
