<?xml version="1.0" encoding="utf-8"?>
<!-- Generator: Adobe Illustrator 14.0.0, SVG Export Plug-In . SVG Version: 6.00 Build 43363)  -->
<!DOCTYPE svg PUBLIC "-//W3C//DTD SVG 1.1//EN" "http://www.w3.org/Graphics/SVG/1.1/DTD/svg11.dtd">
<svg version="1.1" id="Layer_1" xmlns="http://www.w3.org/2000/svg" xmlns:xlink="http://www.w3.org/1999/xlink" x="0px" y="0px"
	 width="24px" height="24px" viewBox="0 0 24 24" enable-background="new 0 0 24 24" xml:space="preserve">
<path fill="#818181" d="M24,3h-4v2h2L24,3z M0,3h12v2H0V3z M12,21h10l2-2H12V21z M0,19h4v2H0V19z M16,13h6l2-2h-8V13z M0,11h8v2H0
	V11z M14,2h4v4h-4V2z M10,10h4v4h-4V10z M6,18h4v4H6V18z"/>
</svg>
