<?xml version="1.0" encoding="utf-8"?>
<!-- Generator: Adobe Illustrator 19.2.1, SVG Export Plug-In . SVG Version: 6.00 Build 0)  -->
<svg version="1.1" id="Layer_1" xmlns="http://www.w3.org/2000/svg" xmlns:xlink="http://www.w3.org/1999/xlink" x="0px" y="0px"
	 viewBox="0 0 24 24" style="enable-background:new 0 0 24 24;" xml:space="preserve">
<style type="text/css">
	.st0{fill:#818181;}
</style>
<path class="st0" d="M23,12h-2v-2l2-2h-2V6h-2v2h-2V6h-2v2h-2v2h2v2h-2v2h2v2h-2v2h2v2l2-2h2v2l2-2l2-2h-2v-2L23,12z M17,10h2v2h-2
	V10z M19,16h-2v-2h2V16z M11,6l-3.9,6l3.9,6H8.8L6,13.7L3.2,18H1l3.9-6L1,6h2.3L6,10.3L8.8,6H11z"/>
</svg>
