<?xml version="1.0" encoding="utf-8"?>
<!-- Generator: Adobe Illustrator 14.0.0, SVG Export Plug-In . SVG Version: 6.00 Build 43363)  -->
<!DOCTYPE svg PUBLIC "-//W3C//DTD SVG 1.1//EN" "http://www.w3.org/Graphics/SVG/1.1/DTD/svg11.dtd">
<svg version="1.1" id="Layer_1" xmlns="http://www.w3.org/2000/svg" xmlns:xlink="http://www.w3.org/1999/xlink" x="0px" y="0px"
	 width="24px" height="24px" viewBox="0 0 24 24" enable-background="new 0 0 24 24" xml:space="preserve">
<path fill="#818181" d="M6,8L4.585,9.414L7.172,12l-2.587,2.586L6,16l4-4L6,8z M19.414,9.414L18,8l-4,4l4,4l1.414-1.414L16.828,12
	L19.414,9.414z M8,18l1.414,1.415L12,16.828l2.586,2.587L16,18l-4-4L8,18z M16,6l-1.414-1.414L12,7.172L9.414,4.586L8,6l4,4L16,6z"
	/>
</svg>
