<?xml version="1.0" encoding="utf-8"?>
<!-- Generator: Adobe Illustrator 14.0.0, SVG Export Plug-In . SVG Version: 6.00 Build 43363)  -->
<!DOCTYPE svg PUBLIC "-//W3C//DTD SVG 1.1//EN" "http://www.w3.org/Graphics/SVG/1.1/DTD/svg11.dtd">
<svg version="1.1" id="Layer_1" xmlns="http://www.w3.org/2000/svg" xmlns:xlink="http://www.w3.org/1999/xlink" x="0px" y="0px"
	 width="24px" height="24px" viewBox="0 0 24 24" enable-background="new 0 0 24 24" xml:space="preserve">
<path fill="#818181" d="M14,0c-2.761,0-5,2.238-5,5v12c0,1.657,1.343,3,3,3c1.656,0,3-1.343,3-3V5l-2,2v10c0,0.553-0.448,1-1,1
	s-1-0.447-1-1V5c0-1.657,1.343-3,3-3c1.656,0,3,1.343,3,3v12c0,2.762-2.238,5-5,5c-2.761,0-5-2.238-5-5V5L5,7v10
	c0,3.866,3.134,7,7,7s7-3.134,7-7V5C19,2.238,16.762,0,14,0z"/>
</svg>
