<?xml version="1.0" encoding="utf-8"?>
<!-- Generator: Adobe Illustrator 14.0.0, SVG Export Plug-In . SVG Version: 6.00 Build 43363)  -->
<!DOCTYPE svg PUBLIC "-//W3C//DTD SVG 1.1//EN" "http://www.w3.org/Graphics/SVG/1.1/DTD/svg11.dtd">
<svg version="1.1" id="Layer_1" xmlns="http://www.w3.org/2000/svg" xmlns:xlink="http://www.w3.org/1999/xlink" x="0px" y="0px"
	 width="24px" height="24px" viewBox="0 0 24 24" enable-background="new 0 0 24 24" xml:space="preserve">
<path fill="#818181" d="M11,14l2-2V6h-2V14z M11,16h2v2h-2V16z M12,0C5.373,0,0,5.373,0,12s5.373,12,12,12s12-5.373,12-12
	S18.627,0,12,0z M12,22C6.477,22,2,17.521,2,12C2,6.478,6.477,2,12,2c5.523,0,10,4.478,10,10C22,17.521,17.523,22,12,22z"/>
</svg>
