<?xml version="1.0" encoding="utf-8"?>
<!-- Generator: Adobe Illustrator 21.1.0, SVG Export Plug-In . SVG Version: 6.00 Build 0)  -->
<svg version="1.1" id="Layer_1" xmlns="http://www.w3.org/2000/svg" xmlns:xlink="http://www.w3.org/1999/xlink" x="0px" y="0px"
	 viewBox="0 0 24 24" style="enable-background:new 0 0 24 24;" xml:space="preserve">
<style type="text/css">
	.st0{fill:#818181;}
</style>
<path class="st0" d="M0,0v24h20l4-4V0H0z M22,19.2L19.2,22H2V2h3v2h2V2h15V19.2z M7,6V4h2v2H7z M5,6h2v2H5V6z M7,10V8h2v2H7z M5,10
	h2v2H5V10z M7,14v-2h2v2H7z M5,16h4v2v2H7H5V16z"/>
</svg>
