<svg width="20" height="21" viewBox="0 0 20 21" fill="none" xmlns="http://www.w3.org/2000/svg">
<path fill-rule="evenodd" clip-rule="evenodd" d="M10 0.869629C4.47514 0.869629 0 5.45735 0 11.1212C0 15.6523 2.86679 19.4911 6.83855 20.8504C7.33579 20.9448 7.51995 20.6302 7.51995 20.3533C7.51995 20.1078 7.51381 19.4659 7.50767 18.6101C4.72683 19.2268 4.13751 17.2381 4.13751 17.2381C3.68324 16.055 3.0264 15.7404 3.0264 15.7404C2.11786 15.1048 3.09392 15.1174 3.09392 15.1174C4.09454 15.1929 4.62861 16.1746 4.62861 16.1746C5.51872 17.7416 6.96746 17.2885 7.53837 17.0242C7.63045 16.3634 7.88827 15.9103 8.17066 15.6523C5.94843 15.3942 3.61571 14.5132 3.61571 10.5863C3.61571 9.46609 4.00246 8.55358 4.64702 7.83616C4.54266 7.57814 4.19889 6.53348 4.74524 5.12381C4.74524 5.12381 5.58625 4.84691 7.4954 6.17477C8.29343 5.94821 9.14672 5.83493 10 5.82864C10.8471 5.82864 11.7066 5.94821 12.5046 6.17477C14.4137 4.84691 15.2548 5.12381 15.2548 5.12381C15.8011 6.53348 15.4573 7.57814 15.353 7.83616C15.9914 8.55358 16.3781 9.46609 16.3781 10.5863C16.3781 14.5258 14.0393 15.388 11.8109 15.646C12.167 15.9606 12.4923 16.59 12.4923 17.5465C12.4923 18.9184 12.48 20.0197 12.48 20.3596C12.48 20.6365 12.6581 20.9511 13.1676 20.8504C17.1393 19.4911 20 15.6523 20 11.1275C20 5.45734 15.5249 0.869629 10 0.869629Z" fill="#E0E0E0"/>
</svg>
