<?xml version="1.0" encoding="utf-8"?>
<!-- Generator: Adobe Illustrator 23.0.1, SVG Export Plug-In . SVG Version: 6.00 Build 0)  -->
<svg version="1.1" id="Layer_1" xmlns="http://www.w3.org/2000/svg" xmlns:xlink="http://www.w3.org/1999/xlink" x="0px" y="0px"
	 viewBox="0 0 650 60" style="enable-background:new 0 0 650 60;" xml:space="preserve">
<style type="text/css">
	.st0{fill:#4B4E52;}
	.st1{fill:#5CE500;}
</style>
<g>
	<g>
		<path class="st0" d="M265.3,14.6h28.5v2.7H281v32.3h-2.9V17.3h-12.8V14.6z"/>
		<path class="st0" d="M302,47.6c2.9,0,5-0.7,7.1-2.5v2.8c-1.9,1.5-4.4,2.2-7.4,2.2c-7.1,0-11.8-5-11.8-12.9
			c0-7.8,4.2-13.4,10.9-13.4c6.6,0,10,5,10,12.4v1h-18.2C292.8,44,296.8,47.6,302,47.6z M292.9,34.8h15.3c-0.2-4.4-2.3-8.6-7.3-8.6
			C296.8,26.3,293.6,29.4,292.9,34.8z"/>
		<path class="st0" d="M318,49.6h-2.9V12.5h2.9V49.6z"/>
		<path class="st0" d="M334.4,47.6c2.9,0,5-0.7,7.1-2.5v2.8c-1.9,1.5-4.4,2.2-7.4,2.2c-7.1,0-11.8-5-11.8-12.9
			c0-7.8,4.2-13.4,10.9-13.4c6.6,0,10,5,10,12.4v1h-18.2C325.1,44,329.1,47.6,334.4,47.6z M325.2,34.8h15.3
			c-0.2-4.4-2.3-8.6-7.3-8.6C329.1,26.3,325.9,29.4,325.2,34.8z"/>
		<path class="st0" d="M359.3,26.9c-0.7-0.3-1.4-0.5-2.3-0.5c-3.1,0-5.5,2.2-6.7,5.5v17.7h-2.9V24.3h2.9v4c1.1-2.5,3.7-4.6,6.8-4.6
			c1,0,1.7,0.2,2.2,0.3V26.9z"/>
		<path class="st0" d="M363.8,18.5c-1.1,0-1.9-0.9-1.9-1.9c0-1,0.9-1.9,1.9-1.9s1.9,0.9,1.9,1.9C365.8,17.7,364.9,18.5,363.8,18.5z
			 M365.2,49.6h-2.8V24.3h2.8V49.6z"/>
		<path class="st0" d="M390.5,49.6H387l-13.2-13v13H371V12.5h2.9v22.8l12.8-11.1h3.7l-13.5,11.6L390.5,49.6z"/>
		<path class="st0" d="M409.5,35.8V14.6h2.9v20.8c0,8.2,4.4,12,10.5,12s10.5-3.8,10.5-12V14.6h2.9v21.2c0,9.6-5.9,14.3-13.5,14.3
			C415.3,50.1,409.5,45.4,409.5,35.8z"/>
		<path class="st0" d="M445.5,49.6h-2.9v-35h2.9V49.6z"/>
		<path class="st0" d="M476,15.2c-0.7-0.4-1.6-0.6-2.6-0.6c-2.7,0-4.6,1.9-4.6,5.5v4.3h5.9v2.5h-5.9v22.9h-2.8V26.7H462v-2.5h4.1
			v-4.6c0-4.6,3-7.7,7.1-7.7c1.1,0,2,0.2,2.9,0.5V15.2z"/>
		<path class="st0" d="M486.3,50.1c-6.7,0-11.2-5.4-11.2-13.2c0-7.8,4.5-13.2,11.2-13.2c6.7,0,11.2,5.4,11.2,13.2
			C497.5,44.8,493,50.1,486.3,50.1z M486.3,26.3c-5,0-8.3,4.3-8.3,10.7c0,6.4,3.3,10.7,8.3,10.7c5.1,0,8.4-4.3,8.4-10.7
			C494.7,30.6,491.4,26.3,486.3,26.3z"/>
		<path class="st0" d="M513.7,26.9c-0.7-0.3-1.4-0.5-2.3-0.5c-3.1,0-5.5,2.2-6.7,5.5v17.7h-2.9V24.3h2.9v4c1.1-2.5,3.7-4.6,6.8-4.6
			c1,0,1.7,0.2,2.2,0.3V26.9z"/>
		<path class="st0" d="M553.3,40c0,6.2-4.3,9.6-11.4,9.6h-11.8v-35h10.7c7.2,0,11.2,3.2,11.2,9.1c0,4.6-2.7,6.9-5.8,7.8
			C550.5,32.2,553.3,35.7,553.3,40z M540.8,30.3c5.4,0,8.3-2.2,8.3-6.6s-3-6.6-8.3-6.6h-7.9v13.1H540.8z M532.9,47h9.1
			c5.5,0,8.3-2.8,8.3-7.1s-2.9-7.1-8.3-7.1h-9.1V47z"/>
		<path class="st0" d="M560.6,49.6h-2.9V12.5h2.9V49.6z"/>
		<path class="st0" d="M580.7,32c0-3.4-2.4-5.6-6.3-5.6c-2.9,0-5.3,0.9-7.4,2.2v-2.7c1.7-1.1,4.5-2.1,7.6-2.1c5.4,0,8.7,3.1,8.7,8.1
			v17.7h-2.7v-2.4c-1.1,1.3-3.9,2.8-7,2.8c-5.1,0-9.3-3-9.3-7.8c0-4.7,4.2-7.8,9.5-7.8c3,0,5.8,1.4,6.9,2.7V32z M580.7,40.6
			c-0.8-2.2-3.6-3.8-6.7-3.8c-3.6,0-6.9,1.8-6.9,5.4c0,3.6,3.3,5.4,6.9,5.4c3.1,0,5.9-1.6,6.7-3.8V40.6z"/>
		<path class="st0" d="M606.2,49.6h-19.5v-0.2l15.1-22.6h-14.4v-2.5h18.9v0.2l-15,22.6h15V49.6z"/>
		<path class="st0" d="M618.6,50.1c-6.7,0-11.2-5.4-11.2-13.2c0-7.8,4.5-13.2,11.2-13.2c6.7,0,11.2,5.4,11.2,13.2
			C629.8,44.8,625.3,50.1,618.6,50.1z M618.6,26.3c-5,0-8.3,4.3-8.3,10.7c0,6.4,3.3,10.7,8.3,10.7c5.1,0,8.4-4.3,8.4-10.7
			C627,30.6,623.7,26.3,618.6,26.3z"/>
		<path class="st0" d="M646,26.9c-0.7-0.3-1.4-0.5-2.3-0.5c-3.1,0-5.5,2.2-6.7,5.5v17.7h-2.8V24.3h2.8v4c1.1-2.5,3.7-4.6,6.8-4.6
			c1,0,1.7,0.2,2.2,0.3V26.9z"/>
	</g>
	<path class="st0" d="M397.4,26.3c-2,0-3.7-1.6-3.7-3.7c0-2.2,1.7-3.7,3.7-3.7c2,0,3.7,1.6,3.7,3.7
		C401.1,24.7,399.4,26.3,397.4,26.3 M397.4,19.5c-1.7,0-3,1.3-3,3.1c0,1.8,1.3,3.1,3,3.1c1.7,0,3-1.3,3-3.1
		C400.4,20.7,399.1,19.5,397.4,19.5 M397,23.2v1.2h-1.1v-3.9h1.8c0.9,0,1.4,0.5,1.4,1.4c0,0.6-0.3,1-0.8,1.2l0.9,1.4h-1.2l-0.8-1.2
		H397z M397.6,21.5H397v0.9h0.6c0.3,0,0.5-0.2,0.5-0.4C398.1,21.7,397.9,21.5,397.6,21.5"/>
</g>
<path class="st1" d="M48.6,40.8c0,0.6-0.4,1.3-0.9,1.6l-12.5,7.2V21.7L11.1,7.8l12.5-7.2c0.5-0.3,1.3-0.3,1.8,0L48.6,14V40.8z
	 M29.8,24.8l-16.5-9.5c-0.5-0.3-1.3-0.3-1.8,0L0.4,21.7l17.4,10.1l0,20.1l11.2-6.4c0.5-0.3,0.9-1,0.9-1.6V24.8z M0.4,41.9l12.1,7
	V34.9L0.4,41.9z"/>
<g>
	<path class="st0" d="M75.2,14H62v35.6h5.8v-14h7.4c8,0,12.4-3.9,12.4-11C87.6,21.5,86.4,14,75.2,14 M81.6,24.8c0,4-2.1,5.7-7.2,5.7
		h-6.6V19.3h7.4C79.5,19.3,81.6,21.1,81.6,24.8 M104.9,23.7l0.4,0.2l-1,5.3l-0.7-0.2c-0.6-0.2-1.1-0.3-1.7-0.3
		c-5.4,0-5.9,4.3-5.9,9.6v11.3h-5.4V23.5h5.1v3.2c1.4-2.1,3-3.2,5.2-3.5C102.5,23,103.9,23.2,104.9,23.7 M118.2,22.9
		c-4.3,0-7.7,1.6-9.8,4.7c-2.3,3.2-2.6,7-2.6,9c0,8.3,4.9,13.6,12.5,13.6c9.2,0,12.5-7.4,12.5-13.8c0-3.7-1.1-7-3.1-9.4
		C125.4,24.4,122.2,22.9,118.2,22.9 M118.2,45.4c-4.2,0-6.9-3.4-6.9-8.8c0-5.5,2.6-8.9,6.9-8.9c4.2,0,6.9,3.4,6.9,8.8
		C125.1,42,122.5,45.4,118.2,45.4 M176.1,23.7l0.4,0.2l-1,5.3l-0.7-0.2c-0.6-0.2-1.1-0.3-1.7-0.3c-5.4,0-5.9,4.3-5.9,9.6v11.3h-5.4
		V23.5h5.1v3.2c1.4-2.1,3-3.2,5.2-3.5C173.6,23,175,23.2,176.1,23.7 M195.5,41.2l-0.1,0.3c-1.1,3.2-3.8,3.9-5.9,3.9
		c-4.1,0-6.7-2.7-7-7.1H201l0.1-0.5c0.1-0.6,0.1-1.5,0.1-2.1c0-0.2,0-0.3,0-0.5c-0.3-7.3-5-12.2-11.9-12.2c-4,0-7.3,1.6-9.5,4.5
		c-1.8,2.4-2.8,5.7-2.8,9.1c0,8.1,5,13.5,12.5,13.5c5.8,0,9.8-2.9,11.2-8.3l0.2-0.6H195.5z M182.7,33.6c0.5-3.6,2.9-5.9,6.5-5.9
		c2.7,0,5.9,1.6,6.3,5.9H182.7z M152,25.7c-1.7-1.8-4.1-2.7-6.9-2.7c-7.9,0-11.5,7-11.5,13.5c0,6.6,3.6,13.4,11.5,13.4
		c2.7,0,5-1,6.7-2.7c0,1.2,0,2.2-0.1,2.7c-0.3,4.3-2.4,6.3-6.5,6.3c-2.3,0-4.9-0.8-5.4-3.1l-0.1-0.5l-5.3,0l0.1,0.7
		c0.6,4.6,4.6,7.5,10.6,7.5c5.2,0,8.9-2,10.8-5.7c0.9-1.8,1.3-4.4,1.3-7.8V23.5H152V25.7z M145.4,44.9c-1.9,0-6.3-0.9-6.3-8.8
		c0-5.2,2.5-8.4,6.4-8.4c3.1,0,6.3,2.2,6.3,8.4C151.9,41.6,149.5,44.9,145.4,44.9 M226.1,41.7c0,4.2-3.5,8.4-11.2,8.4
		c-6.8,0-10.9-3-11.4-8.3l-0.1-0.6h5.3l0.1,0.4c0.7,3.2,3.7,3.9,6.2,3.9c2.7,0,5.6-0.9,5.6-3.3c0-1.2-0.8-2.1-2.4-2.6
		c-0.9-0.3-2.1-0.6-3.3-0.9c-2.1-0.6-4.3-1.2-5.6-1.7c-3.3-1.2-5.2-3.5-5.2-6.3c0-5.3,5.1-7.6,10.2-7.6c6.8,0,10.3,2.6,10.8,7.8
		l0,0.5l-5.2,0l-0.1-0.4c-0.5-3-3.5-3.5-5.3-3.5c-1.5,0-5,0.3-5,2.8c0,1.1,1,2,3,2.6c0.6,0.2,1.5,0.4,2.5,0.7
		c2.1,0.6,4.8,1.2,6.1,1.7C224.4,36.4,226.1,38.6,226.1,41.7 M251,41.7c0,4.2-3.5,8.4-11.2,8.4c-6.8,0-10.9-3-11.4-8.3l-0.1-0.6h5.3
		l0.1,0.4c0.7,3.2,3.7,3.9,6.2,3.9c2.7,0,5.6-0.9,5.6-3.3c0-1.2-0.8-2.1-2.4-2.6c-0.9-0.3-2.1-0.6-3.3-0.9c-2.1-0.6-4.3-1.2-5.6-1.7
		c-3.3-1.2-5.2-3.5-5.2-6.3c0-5.3,5.1-7.6,10.2-7.6c6.8,0,10.3,2.6,10.8,7.8l0,0.5l-5.2,0l-0.1-0.4c-0.5-3-3.5-3.5-5.3-3.5
		c-1.5,0-5,0.3-5,2.8c0,1.1,1,2,3,2.6c0.6,0.2,1.5,0.4,2.5,0.7c2.1,0.6,4.8,1.2,6.1,1.7C249.3,36.4,251,38.6,251,41.7"/>
	<path class="st0" d="M255.3,26.3c-2,0-3.7-1.6-3.7-3.7c0-2.2,1.7-3.7,3.7-3.7c2,0,3.7,1.6,3.7,3.7C259,24.7,257.3,26.3,255.3,26.3
		 M255.3,19.5c-1.7,0-3,1.3-3,3.1c0,1.8,1.3,3.1,3,3.1c1.7,0,3-1.3,3-3.1C258.3,20.7,257,19.5,255.3,19.5 M254.9,23.2v1.2h-1.1v-3.9
		h1.8c0.9,0,1.4,0.5,1.4,1.4c0,0.6-0.3,1-0.8,1.2l0.9,1.4H256l-0.8-1.2H254.9z M255.5,21.5h-0.6v0.9h0.6c0.3,0,0.5-0.2,0.5-0.4
		C256,21.7,255.8,21.5,255.5,21.5"/>
</g>
</svg>
